<svg width="136" height="92" viewBox="0 0 136 92" fill="none" xmlns="http://www.w3.org/2000/svg">
<g clip-path="url(#clip0)">
<path d="M133.568 83.6618C132.638 86.857 129.921 89.0936 127.087 90.9936C126.691 91.2589 126.295 91.5182 125.899 91.7713C125.897 91.7724 125.894 91.7749 125.891 91.7761C125.872 91.7882 125.853 91.8004 125.835 91.8126C125.753 91.8647 125.672 91.9169 125.591 91.9684L125.635 91.9882C125.635 91.9882 125.679 92.0112 125.631 91.9919C125.617 91.986 125.602 91.9807 125.588 91.9748C123.941 91.3175 122.266 90.6118 121.004 89.3805C119.695 88.1019 118.93 86.0965 119.639 84.4168C119.732 84.1967 119.85 83.9877 119.99 83.7935C120.047 83.7121 120.109 83.6341 120.174 83.5577C120.564 83.0854 121.075 82.7247 121.654 82.5127C122.232 82.3006 122.857 82.245 123.465 82.3513C124.072 82.4577 124.64 82.7223 125.11 83.1179C125.58 83.5135 125.935 84.0258 126.138 84.6022C126.346 82.6833 124.748 81.076 123.21 79.89C121.671 78.7046 119.922 77.4137 119.624 75.5054C119.458 74.4437 119.831 73.4148 120.511 72.5888C120.532 72.5637 120.553 72.5387 120.574 72.5143C121.401 71.5523 122.565 70.9345 123.832 70.7844C126.192 70.5417 128.484 71.7781 130.198 73.4022C132.958 76.0153 134.626 80.029 133.568 83.6618Z" fill="#F2F2F2"/>
<path d="M129.132 79.4834C129.585 80.1808 129.933 80.94 130.165 81.7368C130.36 82.449 130.448 83.1862 130.423 83.9239C130.36 85.4419 129.93 86.9227 129.168 88.2417C128.594 89.2423 127.895 90.1672 127.087 90.9943C126.691 91.2597 126.295 91.5189 125.899 91.772C125.897 91.7732 125.894 91.7757 125.891 91.7769C125.872 91.789 125.853 91.8011 125.835 91.8133C125.753 91.8654 125.672 91.9176 125.591 91.9692C125.591 91.9692 125.679 92.012 125.631 91.9926C125.617 91.9868 125.602 91.9815 125.588 91.9755C125.735 90.778 125.591 89.563 125.166 88.4322C124.742 87.3013 124.049 86.2877 123.148 85.4763C122.244 84.6771 121.162 84.1008 119.99 83.7942C120.047 83.7128 120.109 83.6349 120.174 83.5584C120.626 83.684 121.067 83.849 121.49 84.0514C123.003 84.7705 124.241 85.9526 125.023 87.4228C125.724 88.7578 126.026 90.2631 125.892 91.7619C125.96 91.7012 126.028 91.6392 126.094 91.5778C127.345 90.4233 128.456 89.098 129.208 87.5686C129.86 86.2734 130.181 84.8393 130.142 83.3925C130.08 81.815 129.445 80.3538 128.526 79.0817C127.518 77.7246 126.328 76.5102 124.988 75.4724C123.637 74.4017 122.159 73.4986 120.587 72.7833C120.552 72.7669 120.524 72.7377 120.51 72.7016C120.496 72.6655 120.496 72.6254 120.511 72.5896C120.521 72.5574 120.544 72.5306 120.574 72.515C120.59 72.5083 120.607 72.5052 120.624 72.506C120.641 72.5067 120.657 72.5112 120.672 72.5191C120.866 72.6076 121.059 72.6972 121.25 72.7908C122.843 73.5699 124.332 74.5419 125.682 75.6844C126.987 76.7853 128.215 78.043 129.132 79.4834Z" fill="white"/>
<path d="M113.402 2.07229e-09H1.60598C1.18015 0.000383773 0.771885 0.167993 0.470789 0.466036C0.169692 0.76408 0.000374042 1.1682 0 1.58969V76.575C0.000373555 76.9965 0.169692 77.4007 0.470789 77.6987C0.771885 77.9967 1.18015 78.1643 1.60598 78.1647H113.402C113.634 78.1647 113.863 78.1149 114.074 78.0185C114.285 77.9222 114.472 77.7818 114.623 77.6069C114.636 77.5932 114.647 77.5785 114.658 77.5631C114.754 77.4471 114.831 77.3174 114.888 77.1785C114.969 76.9874 115.01 76.7822 115.01 76.575V1.5897C115.009 1.16791 114.84 0.763559 114.538 0.46548C114.237 0.167401 113.828 -2.15073e-05 113.402 2.07229e-09ZM114.551 76.575C114.551 76.7968 114.485 77.0137 114.361 77.1985C114.251 77.3612 114.102 77.494 113.927 77.585C113.764 77.668 113.584 77.7111 113.402 77.7108H1.60598C1.30177 77.7104 1.01013 77.5907 0.79503 77.3777C0.579926 77.1648 0.458919 76.8762 0.45855 76.575V1.5897C0.458919 1.28859 0.579926 0.999921 0.79503 0.787004C1.01013 0.574088 1.30177 0.454309 1.60598 0.453944H113.402C113.706 0.453905 113.998 0.573492 114.214 0.786443C114.429 0.999393 114.551 1.2883 114.551 1.5897V76.575Z" fill="#3F3D56"/>
<path d="M114.779 6.37109H0.229004V6.82554H114.779V6.37109Z" fill="#3F3D56"/>
<path d="M5.25863 3.40827C5.25863 4.02076 4.75631 4.52162 4.13127 4.52162C3.50623 4.52162 3.00391 4.02076 3.00391 3.40827C3.00391 2.79579 3.50623 2.29492 4.13127 2.29492C4.75631 2.29492 5.25863 2.79579 5.25863 3.40827Z" stroke="black" stroke-width="0.5"/>
<path d="M9.21883 3.40827C9.21883 4.02076 8.71651 4.52162 8.09147 4.52162C7.46643 4.52162 6.96411 4.02076 6.96411 3.40827C6.96411 2.79579 7.46643 2.29492 8.09147 2.29492C8.71651 2.29492 9.21883 2.79579 9.21883 3.40827Z" stroke="black" stroke-width="0.5"/>
<path d="M13.1785 3.40827C13.1785 4.02076 12.6762 4.52162 12.0512 4.52162C11.4261 4.52162 10.9238 4.02076 10.9238 3.40827C10.9238 2.79579 11.4261 2.29492 12.0512 2.29492C12.6762 2.29492 13.1785 2.79579 13.1785 3.40827Z" stroke="black" stroke-width="0.5"/>
<path d="M74.189 31.969C73.4542 31.969 72.7358 31.7533 72.1247 31.3491C71.5137 30.945 71.0375 30.3706 70.7562 29.6986C70.475 29.0265 70.4014 28.287 70.5448 27.5736C70.6882 26.8602 71.042 26.2049 71.5617 25.6905C72.0813 25.1761 72.7434 24.8259 73.4642 24.684C74.1849 24.542 74.932 24.6149 75.611 24.8932C76.2899 25.1716 76.8702 25.643 77.2785 26.2478C77.6868 26.8526 77.9047 27.5637 77.9047 28.2911C77.9036 29.2662 77.5118 30.2011 76.8152 30.8905C76.1186 31.58 75.1741 31.9679 74.189 31.969ZM74.189 24.9618C73.5238 24.9618 72.8735 25.1571 72.3204 25.5229C71.7672 25.8888 71.3361 26.4087 71.0815 27.0171C70.827 27.6254 70.7604 28.2948 70.8902 28.9406C71.0199 29.5865 71.3403 30.1797 71.8107 30.6453C72.2811 31.1109 72.8804 31.428 73.5328 31.5564C74.1853 31.6849 74.8616 31.619 75.4762 31.367C76.0908 31.115 76.6161 30.6883 76.9857 30.1408C77.3553 29.5933 77.5526 28.9496 77.5526 28.2911C77.5515 27.4085 77.1968 26.5622 76.5663 25.9381C75.9357 25.3139 75.0808 24.9628 74.189 24.9618Z" fill="#6C63FF"/>
<path d="M73.8382 29.6275C73.7586 29.6276 73.6811 29.6021 73.6174 29.5549L73.6134 29.5519L72.7816 28.9221C72.7038 28.863 72.6529 28.7758 72.64 28.6796C72.6272 28.5834 72.6535 28.4861 72.7131 28.4091C72.7728 28.332 72.8609 28.2816 72.9581 28.2689C73.0553 28.2562 73.1536 28.2822 73.2314 28.3413L73.7702 28.7503L75.0434 27.1061C75.073 27.068 75.1098 27.036 75.1518 27.012C75.1938 26.9879 75.2402 26.9723 75.2883 26.966C75.3364 26.9598 75.3853 26.9629 75.4322 26.9753C75.4791 26.9877 75.523 27.0092 75.5615 27.0384L75.5616 27.0385L75.5537 27.0493L75.5618 27.0385C75.6395 27.0976 75.6904 27.1848 75.7032 27.2809C75.716 27.3771 75.6897 27.4743 75.6302 27.5514L74.1326 29.4844C74.0979 29.5289 74.0534 29.565 74.0024 29.5897C73.9514 29.6145 73.8954 29.6272 73.8386 29.6271L73.8382 29.6275Z" fill="#6C63FF"/>
<path d="M84.8206 31.969C84.0857 31.969 83.3674 31.7533 82.7563 31.3491C82.1453 30.945 81.669 30.3706 81.3878 29.6986C81.1066 29.0265 81.033 28.287 81.1764 27.5736C81.3197 26.8602 81.6736 26.2049 82.1933 25.6905C82.7129 25.1761 83.375 24.8259 84.0957 24.684C84.8165 24.542 85.5636 24.6149 86.2425 24.8932C86.9215 25.1716 87.5018 25.643 87.9101 26.2478C88.3183 26.8526 88.5363 27.5637 88.5363 28.2911C88.5352 29.2662 88.1433 30.2011 87.4468 30.8906C86.7502 31.5801 85.8057 31.9679 84.8206 31.969ZM84.8206 24.9618C84.1554 24.9618 83.5051 25.1571 82.952 25.5229C82.3988 25.8888 81.9677 26.4087 81.7132 27.0171C81.4586 27.6254 81.392 28.2948 81.5217 28.9406C81.6515 29.5865 81.9719 30.1797 82.4423 30.6453C82.9127 31.1109 83.512 31.428 84.1644 31.5564C84.8169 31.6849 85.4932 31.619 86.1078 31.367C86.7224 31.115 87.2477 30.6883 87.6173 30.1408C87.9869 29.5933 88.1841 28.9496 88.1841 28.2911C88.1831 27.4084 87.8284 26.5622 87.1979 25.9381C86.5673 25.3139 85.7124 24.9628 84.8206 24.9618Z" fill="#E6E6E6"/>
<path d="M86.1581 29.5633C86.1135 29.6074 86.053 29.6321 85.99 29.6321C85.9269 29.6321 85.8665 29.6074 85.8218 29.5633L84.9302 28.6807C84.9103 28.6611 84.8834 28.6501 84.8553 28.6501C84.8272 28.65 84.8002 28.6611 84.7803 28.6807L83.8887 29.5633C83.8441 29.6074 83.7836 29.6322 83.7205 29.6322C83.6574 29.6322 83.597 29.6074 83.5524 29.5633C83.5077 29.5191 83.4827 29.4592 83.4827 29.3968C83.4827 29.3343 83.5077 29.2745 83.5524 29.2303L84.444 28.3478C84.4638 28.3281 84.475 28.3014 84.475 28.2736C84.475 28.2458 84.4638 28.2191 84.444 28.1994L83.5523 27.3169C83.5077 27.2727 83.4827 27.2129 83.4827 27.1504C83.4827 27.088 83.5077 27.0281 83.5523 26.984C83.5969 26.9398 83.6574 26.915 83.7205 26.915C83.7835 26.915 83.844 26.9398 83.8886 26.984L84.7803 27.8666C84.8002 27.8862 84.8271 27.8972 84.8552 27.8972C84.8833 27.8972 84.9102 27.8862 84.9301 27.8665L85.8217 26.984C85.8663 26.9399 85.9268 26.9151 85.9899 26.9151C86.053 26.9151 86.1135 26.9399 86.1581 26.984C86.2027 27.0282 86.2278 27.088 86.2278 27.1505C86.2278 27.2129 86.2027 27.2728 86.1581 27.317L85.2665 28.1995C85.2467 28.2192 85.2355 28.2459 85.2355 28.2737C85.2355 28.3015 85.2467 28.3282 85.2665 28.3479L86.1581 29.2304C86.2026 29.2746 86.2277 29.3344 86.2277 29.3968C86.2277 29.4592 86.2027 29.5191 86.1581 29.5633Z" fill="#E6E6E6"/>
<path d="M74.189 43.6457C73.4542 43.6457 72.7358 43.43 72.1247 43.0259C71.5137 42.6218 71.0375 42.0474 70.7562 41.3753C70.475 40.7033 70.4014 39.9638 70.5448 39.2504C70.6882 38.5369 71.042 37.8816 71.5617 37.3673C72.0813 36.8529 72.7434 36.5026 73.4642 36.3607C74.1849 36.2188 74.932 36.2916 75.611 36.57C76.2899 36.8484 76.8702 37.3198 77.2785 37.9246C77.6868 38.5294 77.9047 39.2405 77.9047 39.9679C77.9036 40.943 77.5118 41.8778 76.8152 42.5673C76.1186 43.2568 75.1741 43.6446 74.189 43.6457ZM74.189 36.6386C73.5238 36.6386 72.8735 36.8338 72.3204 37.1997C71.7672 37.5655 71.3361 38.0855 71.0815 38.6938C70.827 39.3022 70.7604 39.9716 70.8902 40.6174C71.0199 41.2632 71.3403 41.8564 71.8107 42.322C72.2811 42.7876 72.8804 43.1047 73.5328 43.2332C74.1853 43.3617 74.8616 43.2957 75.4762 43.0437C76.0908 42.7917 76.6161 42.365 76.9857 41.8175C77.3553 41.27 77.5526 40.6263 77.5526 39.9679C77.5515 39.0852 77.1968 38.239 76.5663 37.6148C75.9357 36.9907 75.0808 36.6396 74.189 36.6386Z" fill="#6C63FF"/>
<path d="M73.8382 41.3043C73.7586 41.3044 73.6811 41.2789 73.6174 41.2316L73.6134 41.2287L72.7816 40.5988C72.7038 40.5398 72.6529 40.4526 72.64 40.3564C72.6272 40.2601 72.6535 40.1628 72.7131 40.0858C72.7728 40.0088 72.8609 39.9584 72.9581 39.9457C73.0553 39.933 73.1536 39.959 73.2314 40.0181L73.7702 40.427L75.0434 38.7829C75.073 38.7448 75.1098 38.7128 75.1518 38.6887C75.1938 38.6647 75.2402 38.6491 75.2883 38.6428C75.3364 38.6365 75.3853 38.6397 75.4322 38.6521C75.4791 38.6645 75.523 38.6859 75.5615 38.7151L75.5616 38.7152L75.5537 38.7261L75.5618 38.7152C75.6395 38.7743 75.6904 38.8615 75.7032 38.9577C75.716 39.0538 75.6897 39.1511 75.6302 39.2281L74.1326 41.1611C74.0979 41.2057 74.0534 41.2417 74.0024 41.2665C73.9514 41.2912 73.8954 41.304 73.8386 41.3038L73.8382 41.3043Z" fill="#6C63FF"/>
<path d="M84.8206 43.6457C84.0857 43.6457 83.3674 43.43 82.7563 43.0259C82.1453 42.6218 81.669 42.0474 81.3878 41.3753C81.1066 40.7033 81.033 39.9638 81.1764 39.2504C81.3197 38.5369 81.6736 37.8816 82.1933 37.3673C82.7129 36.8529 83.375 36.5026 84.0957 36.3607C84.8165 36.2188 85.5636 36.2916 86.2425 36.57C86.9215 36.8484 87.5018 37.3198 87.9101 37.9246C88.3183 38.5294 88.5363 39.2405 88.5363 39.9679C88.5352 40.943 88.1433 41.8778 87.4468 42.5673C86.7502 43.2568 85.8057 43.6446 84.8206 43.6457ZM84.8206 36.6386C84.1554 36.6386 83.5051 36.8338 82.952 37.1997C82.3988 37.5655 81.9677 38.0855 81.7132 38.6938C81.4586 39.3022 81.392 39.9716 81.5217 40.6174C81.6515 41.2632 81.9719 41.8564 82.4423 42.322C82.9127 42.7876 83.512 43.1047 84.1644 43.2332C84.8169 43.3617 85.4932 43.2957 86.1078 43.0437C86.7224 42.7917 87.2477 42.365 87.6173 41.8175C87.9869 41.27 88.1841 40.6263 88.1841 39.9679C88.1831 39.0852 87.8284 38.239 87.1979 37.6148C86.5673 36.9907 85.7124 36.6396 84.8206 36.6386Z" fill="#E6E6E6"/>
<path d="M86.1579 41.24C86.1133 41.2841 86.0528 41.3089 85.9897 41.3089C85.9267 41.3089 85.8662 41.2841 85.8216 41.24L84.93 40.3575C84.9101 40.3379 84.8831 40.3268 84.855 40.3268C84.8269 40.3268 84.8 40.3378 84.7801 40.3575L83.8885 41.24C83.8439 41.2842 83.7834 41.309 83.7203 41.309C83.6572 41.309 83.5967 41.2842 83.5521 41.24C83.5075 41.1959 83.4824 41.136 83.4824 41.0735C83.4824 41.0111 83.5075 40.9512 83.5521 40.9071L84.4437 40.0245C84.4635 40.0049 84.4747 39.9782 84.4747 39.9504C84.4747 39.9226 84.4636 39.8959 84.4437 39.8762L83.5521 38.9936C83.5075 38.9495 83.4824 38.8896 83.4824 38.8272C83.4824 38.7648 83.5075 38.7049 83.5521 38.6607C83.5967 38.6166 83.6572 38.5918 83.7202 38.5918C83.7833 38.5918 83.8438 38.6166 83.8884 38.6607L84.78 39.5433C84.7999 39.563 84.8269 39.574 84.855 39.574C84.8831 39.574 84.91 39.5629 84.9299 39.5433L85.8215 38.6608C85.8661 38.6166 85.9266 38.5918 85.9897 38.5918C86.0528 38.5918 86.1132 38.6166 86.1579 38.6608C86.2025 38.7049 86.2275 38.7648 86.2275 38.8272C86.2275 38.8897 86.2025 38.9496 86.1579 38.9937L85.2662 39.8763C85.2464 39.8959 85.2353 39.9226 85.2353 39.9504C85.2353 39.9782 85.2464 40.0049 85.2663 40.0246L86.1579 40.9071C86.2024 40.9513 86.2274 41.0112 86.2274 41.0736C86.2274 41.136 86.2024 41.1958 86.1579 41.24Z" fill="#E6E6E6"/>
<path d="M74.189 55.3215C73.4542 55.3215 72.7358 55.1058 72.1247 54.7017C71.5137 54.2976 71.0375 53.7232 70.7562 53.0511C70.475 52.3791 70.4014 51.6396 70.5448 50.9262C70.6882 50.2127 71.042 49.5574 71.5617 49.043C72.0813 48.5287 72.7434 48.1784 73.4642 48.0365C74.1849 47.8946 74.932 47.9674 75.611 48.2458C76.2899 48.5242 76.8702 48.9956 77.2785 49.6004C77.6868 50.2052 77.9047 50.9163 77.9047 51.6437C77.9036 52.6188 77.5118 53.5536 76.8152 54.2431C76.1186 54.9326 75.1741 55.3204 74.189 55.3215ZM74.189 48.3144C73.5238 48.3144 72.8735 48.5096 72.3204 48.8755C71.7672 49.2413 71.3361 49.7613 71.0815 50.3696C70.827 50.978 70.7604 51.6474 70.8902 52.2932C71.0199 52.939 71.3403 53.5322 71.8107 53.9978C72.2811 54.4634 72.8804 54.7805 73.5328 54.909C74.1853 55.0375 74.8616 54.9715 75.4762 54.7195C76.0908 54.4675 76.6161 54.0408 76.9857 53.4933C77.3553 52.9458 77.5526 52.3021 77.5526 51.6437C77.5515 50.761 77.1968 49.9148 76.5663 49.2906C75.9357 48.6665 75.0808 48.3154 74.189 48.3144Z" fill="#E6E6E6"/>
<path d="M73.8382 52.981C73.7586 52.9812 73.6811 52.9557 73.6174 52.9084L73.6134 52.9054L72.7816 52.2756C72.7038 52.2165 72.6529 52.1293 72.64 52.0331C72.6272 51.9369 72.6535 51.8396 72.7131 51.7626C72.7728 51.6856 72.8609 51.6352 72.9581 51.6224C73.0553 51.6097 73.1536 51.6358 73.2314 51.6948L73.7702 52.1038L75.0434 50.4596C75.073 50.4215 75.1098 50.3895 75.1518 50.3655C75.1938 50.3415 75.2402 50.3258 75.2883 50.3196C75.3364 50.3133 75.3853 50.3164 75.4322 50.3288C75.4791 50.3412 75.523 50.3627 75.5615 50.3919L75.5616 50.392L75.5537 50.4028L75.5618 50.392C75.6395 50.4511 75.6904 50.5383 75.7032 50.6344C75.716 50.7306 75.6897 50.8279 75.6302 50.9049L74.1326 52.8379C74.0979 52.8824 74.0534 52.9185 74.0024 52.9432C73.9514 52.968 73.8954 52.9808 73.8386 52.9806L73.8382 52.981Z" fill="#E6E6E6"/>
<path d="M84.8206 55.3215C84.0857 55.3215 83.3674 55.1058 82.7563 54.7017C82.1453 54.2976 81.669 53.7232 81.3878 53.0511C81.1066 52.3791 81.033 51.6396 81.1764 50.9262C81.3197 50.2127 81.6736 49.5574 82.1933 49.043C82.7129 48.5287 83.375 48.1784 84.0957 48.0365C84.8165 47.8946 85.5636 47.9674 86.2425 48.2458C86.9215 48.5242 87.5018 48.9956 87.9101 49.6004C88.3183 50.2052 88.5363 50.9163 88.5363 51.6437C88.5352 52.6188 88.1433 53.5536 87.4468 54.2431C86.7502 54.9326 85.8057 55.3204 84.8206 55.3215ZM84.8206 48.3144C84.1554 48.3144 83.5051 48.5096 82.952 48.8755C82.3988 49.2413 81.9677 49.7613 81.7132 50.3696C81.4586 50.978 81.392 51.6474 81.5217 52.2932C81.6515 52.939 81.9719 53.5322 82.4423 53.9978C82.9127 54.4634 83.512 54.7805 84.1644 54.909C84.8169 55.0375 85.4932 54.9715 86.1078 54.7195C86.7224 54.4675 87.2477 54.0408 87.6173 53.4933C87.9869 52.9458 88.1841 52.3021 88.1841 51.6437C88.1831 50.761 87.8284 49.9147 87.1979 49.2906C86.5673 48.6664 85.7124 48.3154 84.8206 48.3144Z" fill="#E6E6E6"/>
<path d="M86.1579 52.9168C86.1132 52.9609 86.0528 52.9856 85.9897 52.9856C85.9267 52.9856 85.8662 52.9609 85.8216 52.9168L84.93 52.0343C84.9101 52.0146 84.8831 52.0036 84.855 52.0036C84.8269 52.0036 84.8 52.0146 84.7801 52.0342L83.8885 52.9168C83.8439 52.9609 83.7834 52.9857 83.7203 52.9857C83.6572 52.9857 83.5967 52.9609 83.5521 52.9168C83.5075 52.8726 83.4824 52.8127 83.4824 52.7503C83.4824 52.6879 83.5075 52.628 83.5521 52.5838L84.4437 51.7013C84.4635 51.6816 84.4747 51.6549 84.4747 51.6271C84.4747 51.5993 84.4636 51.5726 84.4437 51.553L83.5521 50.6704C83.5075 50.6262 83.4824 50.5664 83.4824 50.5039C83.4824 50.4415 83.5075 50.3816 83.5521 50.3375C83.5967 50.2934 83.6571 50.2686 83.7202 50.2686C83.7833 50.2686 83.8438 50.2934 83.8884 50.3375L84.78 51.2201C84.7999 51.2397 84.8269 51.2508 84.855 51.2507C84.8831 51.2507 84.91 51.2397 84.9299 51.2201L85.8215 50.3375C85.8661 50.2935 85.9266 50.2688 85.9896 50.2689C86.0526 50.269 86.113 50.2938 86.1575 50.3379C86.2021 50.382 86.2271 50.4417 86.2272 50.5041C86.2272 50.5665 86.2023 50.6263 86.1578 50.6705L85.2662 51.553C85.2464 51.5727 85.2353 51.5994 85.2353 51.6272C85.2353 51.655 85.2464 51.6817 85.2663 51.7014L86.1579 52.5839C86.2024 52.6281 86.2274 52.6879 86.2274 52.7503C86.2274 52.8128 86.2024 52.8726 86.1579 52.9168Z" fill="#E6E6E6"/>
<path d="M135.816 91.9466H65.6441C65.5953 91.9466 65.5484 91.9274 65.5139 91.8932C65.4794 91.859 65.46 91.8127 65.46 91.7643C65.46 91.716 65.4794 91.6696 65.5139 91.6354C65.5484 91.6012 65.5953 91.582 65.6441 91.582H135.816C135.865 91.582 135.911 91.6012 135.946 91.6354C135.981 91.6696 136 91.716 136 91.7643C136 91.8127 135.981 91.859 135.946 91.8932C135.911 91.9274 135.865 91.9466 135.816 91.9466Z" fill="#3F3D56"/>
<path d="M75.7625 41.9782L75.7419 41.9659C75.4124 41.7653 75.167 41.4545 75.0503 41.0902C74.9314 40.719 74.9541 40.3175 75.1143 39.9617C75.2745 39.6058 75.5614 39.3197 75.9213 39.1584C76.2811 38.9971 76.6885 38.972 77.066 39.088L77.1067 39.1005L77.1493 39.0989L82.9762 38.8679L84.4406 41.2337L78.3291 41.0323L78.1521 41.0265L78.0879 41.1916C78.004 41.4074 77.8733 41.6026 77.7047 41.7633C77.5361 41.924 77.3339 42.0463 77.112 42.1215C76.8902 42.1967 76.6543 42.2228 76.421 42.1981C76.1878 42.1733 75.963 42.0982 75.7625 41.9782Z" fill="#F4F7FA" stroke="black" stroke-width="0.5"/>
<path d="M112.535 56.13L112.534 56.1312C112.276 56.4263 111.918 56.6179 111.526 56.669C111.134 56.7202 110.737 56.6272 110.41 56.4081C110.083 56.189 109.849 55.8593 109.752 55.482C109.655 55.1046 109.701 54.7051 109.882 54.3589L109.902 54.3204L109.908 54.2774L110.698 48.5612L113.313 47.5463L112.043 53.4655L112.005 53.6406L112.159 53.7325C112.36 53.8524 112.531 54.0142 112.661 54.2064C112.792 54.3987 112.877 54.6166 112.913 54.845C112.949 55.0733 112.934 55.3067 112.869 55.5286C112.803 55.7506 112.69 55.9559 112.535 56.13Z" fill="#F4F7FA" stroke="black" stroke-width="0.5"/>
<path d="M97.0639 81.1359L97.0636 89.2567L95.2763 89.2566L94.2645 81.1358L97.0639 81.1359Z" fill="#F4F7FA" stroke="black" stroke-width="0.5"/>
<path d="M93.4429 89.0264L97.6396 89.0265L97.6395 91.4228L90.8639 91.4225C90.8816 91.1416 90.9461 90.8652 91.0552 90.6044C91.1848 90.2946 91.3749 90.013 91.6148 89.7756C91.8546 89.5382 92.1394 89.3498 92.4531 89.2212C92.7668 89.0926 93.1031 89.0264 93.4427 89.0264H93.4427H93.4429H93.4429Z" fill="#F4F7FA" stroke="black" stroke-width="0.5"/>
<path d="M108.115 81.1359L108.114 89.2567L106.327 89.2566L105.315 81.1358L108.115 81.1359Z" fill="#F4F7FA" stroke="black" stroke-width="0.5"/>
<path d="M104.494 89.0264L108.69 89.0265L108.69 91.4228L101.915 91.4225C101.932 91.1416 101.997 90.8652 102.106 90.6044C102.236 90.2946 102.426 90.013 102.665 89.7756C102.905 89.5382 103.19 89.3498 103.504 89.2212C103.817 89.0926 104.154 89.0264 104.493 89.0264H104.493H104.494H104.494Z" fill="#F4F7FA" stroke="black" stroke-width="0.5"/>
<path d="M108.729 55.2638L109.268 83.7401M108.729 55.2638L108.685 55.2378C104.753 52.9206 100.119 52.7689 94.5165 54.7748L109.268 83.7401M108.729 55.2638L108.669 55.265L108.558 55.4532L108.601 55.4791L108.729 55.2638ZM109.268 83.7401C109.27 83.8492 109.25 83.9575 109.209 84.0588L109.268 83.7401ZM108.481 55.4085C104.671 53.196 100.175 53.0362 94.7023 54.974L93.8071 84.0405C93.8071 84.0406 93.8071 84.0407 93.8071 84.0408C93.803 84.1902 93.8584 84.3357 93.9621 84.4458C94.0659 84.556 94.2098 84.622 94.3631 84.6285L97.5568 84.755C97.5571 84.755 97.5574 84.755 97.5577 84.755C97.5658 84.7553 97.5738 84.7554 97.5815 84.7554V85.0054M108.481 55.4085L101.16 65.2649C101.108 65.2245 101.044 65.2036 100.978 65.206C100.912 65.2084 100.849 65.234 100.801 65.2781C100.753 65.3221 100.722 65.3819 100.714 65.4465L100.466 65.4161L100.466 65.4163L98.1567 84.2523C98.1567 84.2525 98.1566 84.2527 98.1566 84.2529C98.1389 84.3904 98.0712 84.5175 97.9655 84.6101C97.8596 84.7029 97.7228 84.7548 97.5804 84.7554L97.5815 85.0054M108.481 55.4085L109.018 83.7449L109.018 83.7449C109.02 83.8204 109.006 83.8954 108.978 83.9656C108.949 84.0359 108.907 84.1 108.853 84.1542C108.8 84.2085 108.735 84.2517 108.664 84.2812C108.593 84.3108 108.517 84.326 108.439 84.326H105.745C105.61 84.3258 105.479 84.2793 105.376 84.195C105.272 84.1107 105.202 83.9939 105.176 83.8648L101.504 65.378M108.481 55.4085L101.504 65.378M97.5815 85.0054C97.7838 85.0045 97.9789 84.9308 98.1303 84.7981C98.2818 84.6654 98.3793 84.4827 98.4047 84.284L97.5488 85.0049C97.5597 85.0052 97.5707 85.0054 97.5815 85.0054ZM101.504 65.378C101.504 65.3779 101.504 65.3779 101.504 65.3779L101.504 65.378Z" fill="#F4F7FA" stroke="black" stroke-width="0.5"/>
<path d="M104.932 24.6778C104.932 27.0102 103.021 28.9054 100.659 28.9054C98.2959 28.9054 96.385 27.0102 96.385 24.6778C96.385 22.3454 98.2959 20.4502 100.659 20.4502C103.021 20.4502 104.932 22.3454 104.932 24.6778Z" fill="#F4F7FA" stroke="black" stroke-width="0.5"/>
<path d="M79.6306 41.06L79.6305 41.0597C79.5956 40.9493 79.5955 40.8311 79.6303 40.7206C79.6303 40.7206 79.6303 40.7206 79.6303 40.7205L80.0988 39.2348C80.0988 39.2347 80.0988 39.2346 80.0988 39.2346C80.1343 39.1231 80.2037 39.0247 80.2979 38.9528C80.3922 38.881 80.5068 38.8393 80.6263 38.8337C80.6264 38.8337 80.6265 38.8337 80.6266 38.8337L86.5608 38.574L86.6148 38.5717L86.663 38.5472L96.2728 33.6712C96.5703 33.5798 96.883 33.5461 97.1936 33.5719C97.5109 33.5983 97.8198 33.6863 98.1025 33.8309C98.3852 33.9755 98.6361 34.1737 98.8411 34.4141C99.046 34.6546 99.201 34.9325 99.2972 35.232C99.3934 35.5314 99.429 35.8467 99.402 36.1597C99.3749 36.4727 99.2858 36.7774 99.1397 37.0565C98.9935 37.3356 98.7931 37.5836 98.5498 37.7863C98.3065 37.989 98.0251 38.1423 97.7216 38.2373L97.6955 38.2455L97.6718 38.2591L91.7711 41.6468L91.7711 41.6468C90.0325 42.6453 87.9865 42.9849 86.0136 42.602L86.0136 42.602L80.0714 41.4496C79.9912 41.434 79.9154 41.4019 79.8489 41.3556C79.7823 41.3092 79.7266 41.2496 79.6852 41.1809L79.6851 41.1807C79.6621 41.1427 79.6438 41.1022 79.6306 41.06Z" fill="#F4F7FA" stroke="black" stroke-width="0.5"/>
<path d="M112.446 51.9349L112.446 51.9348C112.488 51.9197 112.529 51.8997 112.566 51.8752L112.567 51.8751C112.635 51.831 112.692 51.7732 112.736 51.7058C112.78 51.6384 112.809 51.5629 112.821 51.484L112.446 51.9349ZM112.446 51.9349C112.334 51.9746 112.213 51.9798 112.099 51.9497C112.099 51.9497 112.099 51.9497 112.099 51.9497L110.579 51.5497C110.579 51.5497 110.579 51.5496 110.579 51.5496C110.464 51.5189 110.361 51.454 110.285 51.3641C110.208 51.2742 110.162 51.1636 110.152 51.0473C110.152 51.0472 110.151 51.0472 110.151 51.0472L109.637 45.1897L109.632 45.1349L109.604 45.0872L104.273 35.792C104.169 35.5026 104.122 35.1959 104.135 34.8888C104.148 34.5749 104.223 34.2666 104.357 33.9815C104.49 33.6964 104.68 33.44 104.914 33.227C105.148 33.014 105.422 32.8486 105.721 32.7405C106.02 32.6323 106.337 32.5835 106.656 32.5969C106.974 32.6103 107.286 32.6856 107.574 32.8185C107.863 32.9514 108.122 33.1392 108.337 33.3711C108.552 33.6029 108.718 33.8743 108.827 34.1695L108.836 34.1955L108.851 34.2187L112.522 39.9097L112.522 39.9098C113.603 41.5857 114.033 43.5929 113.731 45.5583L113.731 45.5583L112.821 51.4839L112.446 51.9349Z" fill="#F4F7FA" stroke="black" stroke-width="0.5"/>
<path d="M95.8945 32.7991L95.8936 32.8C95.1334 33.6171 94.5683 34.5924 94.2398 35.6541C93.9112 36.7157 93.8276 37.8367 93.9949 38.9346L93.995 38.935L95.064 46.0399L95.0683 46.0686L95.0659 46.0974L94.2137 56.5583C94.2073 56.6365 94.2174 56.7151 94.2432 56.7893C94.2691 56.8635 94.3103 56.9317 94.3643 56.9897C94.4183 57.0477 94.4841 57.0941 94.5574 57.126C94.6308 57.1578 94.7101 57.1743 94.7903 57.1743L95.8945 32.7991ZM95.8945 32.7991C96.6461 31.9832 97.5733 31.3446 98.6079 30.9306C99.6425 30.5165 100.758 30.3377 101.872 30.4072L101.872 30.4072C101.946 30.4118 102.02 30.4169 102.094 30.4226L102.101 30.4231M95.8945 32.7991L102.101 30.4231M102.101 30.4231C103.154 30.5065 104.177 30.8111 105.102 31.3164C106.029 31.8228 106.836 32.5191 107.469 33.3586L107.469 33.3588C108.112 34.2105 108.565 35.1883 108.796 36.2267C109.027 37.265 109.032 38.3403 108.81 39.3805L108.81 39.3806C107.923 43.5335 108.148 47.8434 109.46 51.8841L109.46 51.8842L110.674 55.614L110.674 55.614C110.701 55.6968 110.708 55.7846 110.696 55.8705C110.683 55.9565 110.65 56.0386 110.6 56.1105C110.55 56.1824 110.484 56.2421 110.407 56.2851C110.329 56.328 110.243 56.3528 110.154 56.3575L110.154 56.3575L104.102 56.6796L102.591 54.0966L102.126 53.3002V54.2228V56.7847L94.8218 57.1734L94.8203 57.1735C94.8111 57.174 94.8013 57.1743 94.7904 57.1743L102.101 30.4231Z" fill="#F4F7FA" stroke="black" stroke-width="0.5"/>
<path d="M103.802 28.9521C103.384 29.1907 101.728 29.3488 101.61 28.885L101.608 28.8748C101.526 28.535 101.594 28.1801 101.617 27.8315C101.641 27.4828 101.606 27.0998 101.366 26.8435C100.919 26.3656 100.124 26.6189 99.4771 26.4981C99.0983 26.4144 98.7634 26.197 98.5349 25.8865C98.3064 25.576 98.2 25.1938 98.2357 24.8113C98.2449 24.7388 98.2594 24.6663 98.2756 24.5938C98.316 24.4101 98.3129 24.2196 98.2664 24.0373C98.22 23.855 98.1315 23.6858 98.0079 23.5431C97.8843 23.4003 97.7289 23.2879 97.554 23.2146C97.3791 23.1412 97.1894 23.1091 96.9998 23.1205C96.3463 23.1575 95.6409 23.3535 95.1003 22.8744C94.6822 22.5039 94.5802 21.5395 94.7639 21.0146C95.0726 20.1326 97.0502 19.6708 97.9137 19.417C98.9816 19.1116 100.105 19.0455 101.202 19.2237C102.299 19.4019 103.342 19.8197 104.255 20.4469C104.8 20.8274 105.31 21.3055 105.542 21.9246C105.775 22.5437 105.662 23.3248 105.138 23.7335C105.545 24.1593 105.831 24.6833 105.968 25.253C106.105 25.8228 106.089 26.4182 105.92 26.9797C105.661 27.8054 104.426 28.5971 103.802 28.9521Z" fill="#7247FF"/>
<path d="M41.3702 29.182H12.4063C12.033 29.1816 11.6752 29.0345 11.4114 28.7731C11.1476 28.5116 10.9994 28.1573 10.9994 27.7878C10.9994 27.4183 11.1476 27.0639 11.4114 26.8025C11.6752 26.5411 12.033 26.394 12.4063 26.3936H41.3702C41.7435 26.394 42.1014 26.5411 42.3652 26.8025C42.629 27.0639 42.7772 27.4183 42.7772 27.7878C42.7772 28.1573 42.629 28.5116 42.3652 28.7731C42.1014 29.0345 41.7435 29.1816 41.3702 29.182Z" fill="#6C63FF"/>
<path d="M41.3702 29.182H12.4063C12.033 29.1816 11.6752 29.0345 11.4114 28.7731C11.1476 28.5116 10.9994 28.1573 10.9994 27.7878C10.9994 27.4183 11.1476 27.0639 11.4114 26.8025C11.6752 26.5411 12.033 26.394 12.4063 26.3936H41.3702C41.7435 26.394 42.1014 26.5411 42.3652 26.8025C42.629 27.0639 42.7772 27.4183 42.7772 27.7878C42.7772 28.1573 42.629 28.5116 42.3652 28.7731C42.1014 29.0345 41.7435 29.1816 41.3702 29.182Z" fill="url(#paint0_linear)"/>
<path d="M59.2523 30.3714H9.52439C9.47554 30.3714 9.4287 30.3522 9.39416 30.318C9.35962 30.2839 9.34021 30.2375 9.34021 30.1891C9.34021 30.1408 9.35962 30.0944 9.39416 30.0602C9.4287 30.026 9.47554 30.0068 9.52439 30.0068H59.2523C59.3012 30.0068 59.348 30.026 59.3826 30.0602C59.4171 30.0944 59.4365 30.1408 59.4365 30.1891C59.4365 30.2375 59.4171 30.2839 59.3826 30.318C59.348 30.3522 59.3012 30.3714 59.2523 30.3714Z" fill="#3F3D56"/>
<path d="M41.3704 40.8587H12.4065C12.0329 40.8587 11.6746 40.7118 11.4105 40.4504C11.1463 40.1889 10.9979 39.8343 10.9979 39.4645C10.9979 39.0948 11.1463 38.7401 11.4105 38.4787C11.6746 38.2172 12.0329 38.0703 12.4065 38.0703H41.3704C41.7437 38.0707 42.1015 38.2178 42.3653 38.4792C42.6291 38.7406 42.7773 39.095 42.7773 39.4645C42.7773 39.834 42.6291 40.1884 42.3653 40.4498C42.1015 40.7112 41.7437 40.8583 41.3704 40.8587Z" fill="#6C63FF"/>
<path d="M41.3704 40.8587H12.4065C12.0329 40.8587 11.6746 40.7118 11.4105 40.4504C11.1463 40.1889 10.9979 39.8343 10.9979 39.4645C10.9979 39.0948 11.1463 38.7401 11.4105 38.4787C11.6746 38.2172 12.0329 38.0703 12.4065 38.0703H41.3704C41.7437 38.0707 42.1015 38.2178 42.3653 38.4792C42.6291 38.7406 42.7773 39.095 42.7773 39.4645C42.7773 39.834 42.6291 40.1884 42.3653 40.4498C42.1015 40.7112 41.7437 40.8583 41.3704 40.8587Z" fill="url(#paint1_linear)"/>
<path d="M59.2523 42.0472H9.52439C9.47554 42.0472 9.4287 42.028 9.39416 41.9938C9.35962 41.9596 9.34021 41.9133 9.34021 41.8649C9.34021 41.8166 9.35962 41.7702 9.39416 41.736C9.4287 41.7018 9.47554 41.6826 9.52439 41.6826H59.2523C59.3012 41.6826 59.348 41.7018 59.3826 41.736C59.4171 41.7702 59.4365 41.8166 59.4365 41.8649C59.4365 41.9133 59.4171 41.9596 59.3826 41.9938C59.348 42.028 59.3012 42.0472 59.2523 42.0472Z" fill="#3F3D56"/>
<path d="M41.3704 52.5345H12.4065C12.0329 52.5345 11.6746 52.3876 11.4105 52.1262C11.1463 51.8647 10.9979 51.5101 10.9979 51.1403C10.9979 50.7705 11.1463 50.4159 11.4105 50.1544C11.6746 49.893 12.0329 49.7461 12.4065 49.7461H41.3704C41.7437 49.7465 42.1015 49.8936 42.3653 50.155C42.6291 50.4164 42.7773 50.7708 42.7773 51.1403C42.7773 51.5098 42.6291 51.8642 42.3653 52.1256C42.1015 52.387 41.7437 52.5341 41.3704 52.5345Z" fill="#F2F2F2"/>
<path d="M59.2523 53.724H9.52439C9.47554 53.724 9.4287 53.7048 9.39416 53.6706C9.35962 53.6364 9.34021 53.59 9.34021 53.5417C9.34021 53.4933 9.35962 53.447 9.39416 53.4128C9.4287 53.3786 9.47554 53.3594 9.52439 53.3594H59.2523C59.3012 53.3594 59.348 53.3786 59.3826 53.4128C59.4171 53.447 59.4365 53.4933 59.4365 53.5417C59.4365 53.59 59.4171 53.6364 59.3826 53.6706C59.348 53.7048 59.3012 53.724 59.2523 53.724Z" fill="#3F3D56"/>
</g>
<defs>
<linearGradient id="paint0_linear" x1="10.828" y1="26.5302" x2="43.7402" y2="29.1602" gradientUnits="userSpaceOnUse">
<stop stop-color="#4614E8"/>
<stop offset="1" stop-color="#BCA7FF"/>
</linearGradient>
<linearGradient id="paint1_linear" x1="10.8265" y1="38.207" x2="43.7404" y2="40.8372" gradientUnits="userSpaceOnUse">
<stop stop-color="#4614E8"/>
<stop offset="1" stop-color="#BCA7FF"/>
</linearGradient>
<clipPath id="clip0">
<rect width="136" height="92" fill="white"/>
</clipPath>
</defs>
</svg>
