<svg width="190" height="92" viewBox="0 0 190 92" fill="none" xmlns="http://www.w3.org/2000/svg">
<g clip-path="url(#clip0)">
<path d="M25.8505 73.5545H168.745V1.17969H25.8505V73.5545Z" fill="white"/>
<path d="M169.923 74.7336H24.6716V0H169.923V74.7336ZM27.0291 72.3749H167.566V2.35866H27.0291V72.3749Z" fill="#E5E5E5"/>
<path d="M87.5425 16.4902C90.3039 16.4902 92.5425 18.7288 92.5425 21.4902V36.0551C92.5425 38.8165 90.3039 41.0551 87.5425 41.0551H56.8508L50.2569 48.9705L51.0099 41.0551C49.2379 41.0551 47.8015 39.6187 47.8015 37.8467V21.4902C47.8015 18.7288 50.0401 16.4902 52.8015 16.4902H87.5425Z" fill="url(#paint0_linear)"/>
<path d="M114.142 17.9482V33.6982H137.026L141.254 38.7731L140.771 33.6982H142.828V17.9482H114.142Z" fill="#F0F0F0"/>
<path d="M22.4633 81.96L21.5427 89.4272H19.9492L19.949 81.96H22.4633Z" fill="#F4F7FA" stroke="black" stroke-width="0.5"/>
<path d="M19.4227 91.4298L19.4226 89.2531L23.2385 89.2529H23.2385H23.2387C23.2387 89.2529 23.2387 89.2529 23.2387 89.2529C23.8595 89.253 24.455 89.4997 24.894 89.939C25.2939 90.339 25.5342 90.8689 25.5739 91.4295L19.4227 91.4298Z" fill="#F4F7FA" stroke="black" stroke-width="0.5"/>
<path d="M46.2342 88.9258L44.6867 89.3068L42.9031 82.056L45.3446 81.4549L46.2342 88.9258Z" fill="#F4F7FA" stroke="black" stroke-width="0.5"/>
<path d="M50.6267 89.9063L44.6537 91.377L44.1338 89.2634L47.8378 88.3514L47.8379 88.3514L47.8392 88.3511L47.8393 88.351C48.4422 88.2026 49.0793 88.2999 49.6105 88.6215C50.0943 88.9143 50.4542 89.3714 50.6267 89.9063Z" fill="#F4F7FA" stroke="black" stroke-width="0.5"/>
<path d="M18.7273 87.5578L19.1039 85.63L19.1063 85.6177L19.1075 85.6052L19.1075 85.6052L19.1075 85.6051L19.1076 85.6042L19.108 85.6001L19.1097 85.5829C19.1113 85.5673 19.1138 85.5438 19.1173 85.5125C19.1243 85.4499 19.1353 85.3563 19.1514 85.2339C19.1836 84.9889 19.2361 84.6282 19.3167 84.1685C19.4779 83.249 19.7518 81.9336 20.2019 80.3547C21.1024 77.196 22.7067 72.9874 25.5215 68.7844L25.5492 68.7432L25.5589 68.6945L27.4031 59.5045L27.41 59.4703L27.4072 59.4358L27.4072 59.4357L27.4072 59.4357L27.4072 59.4352L27.407 59.4322L27.4061 59.4188C27.4053 59.4066 27.4041 59.3879 27.4028 59.3631C27.4002 59.3135 27.397 59.2394 27.3947 59.1431C27.3902 58.9506 27.3894 58.6698 27.4048 58.3205C27.4355 57.6215 27.5307 56.6504 27.7882 55.5641C28.3035 53.3903 29.464 50.774 32.04 48.9383L33.5976 47.8648L39.0296 48.1764L40.3134 55.2083L42.972 72.3087L43.0019 72.501L43.1822 72.5179C43.1873 72.5197 43.1973 72.5236 43.2114 72.5312C43.2469 72.5504 43.3145 72.5966 43.3966 72.7027C43.5629 72.9177 43.7891 73.3795 43.9147 74.3448L43.9217 74.3992L43.951 74.4457C44.452 75.2414 44.7485 76.1488 44.8138 77.0869L44.8162 77.1218L44.8282 77.1547L45.0632 77.0695L44.8282 77.1547L44.8282 77.1548L44.8284 77.1552L44.829 77.1571L44.8319 77.165L44.8431 77.1964C44.853 77.2242 44.8677 77.2655 44.8865 77.3191C44.9241 77.4263 44.9784 77.5828 45.0446 77.7795C45.1772 78.1728 45.3578 78.726 45.5498 79.3651C45.9328 80.6406 46.3573 82.2469 46.5383 83.6054L46.4981 86.1455L44.0111 87.4712L38.1188 70.7993L38.1153 70.7893L38.1109 70.7796L33.8272 61.3059L33.5553 60.7045L33.3606 61.3351L33.5994 61.4089L33.3606 61.3351L33.3605 61.3353L33.3602 61.3361L33.3592 61.3396L33.3548 61.3537L33.3371 61.41C33.3214 61.4597 33.2979 61.5337 33.2668 61.63C33.2046 61.8226 33.1121 62.1045 32.9912 62.4608C32.7494 63.1735 32.3941 64.1835 31.9403 65.3719C31.0322 67.7498 29.732 70.8362 28.1609 73.6811L28.1565 73.689L28.1528 73.6971L28.3797 73.8019C28.1528 73.6971 28.1528 73.6972 28.1527 73.6972L28.1526 73.6976L28.152 73.6988L28.1496 73.7039L28.1403 73.7241L28.104 73.8028L27.9652 74.1033L27.4634 75.1904C27.0444 76.0983 26.4767 77.3286 25.882 78.6184C24.6928 81.1976 23.3951 84.0158 22.9627 84.9681L22.9558 84.9832L22.951 84.999L22.0675 87.9153L18.7273 87.5578Z" fill="#F4F7FA" stroke="black" stroke-width="0.5"/>
<path d="M37.5345 33.0648C39.7901 33.0648 41.6186 31.2354 41.6186 28.9787C41.6186 26.722 39.7901 24.8926 37.5345 24.8926C35.2789 24.8926 33.4503 26.722 33.4503 28.9787C33.4503 31.2354 35.2789 33.0648 37.5345 33.0648Z" fill="#FFB7B7"/>
<path d="M41.3686 28.9787C41.3686 31.0975 39.6519 32.8148 37.5345 32.8148C35.417 32.8148 33.7003 31.0975 33.7003 28.9787C33.7003 26.86 35.417 25.1426 37.5345 25.1426C39.6519 25.1426 41.3686 26.86 41.3686 28.9787Z" fill="#F4F7FA" stroke="black" stroke-width="0.5"/>
<path d="M33.4888 45.5004L33.5216 45.4183L33.4956 45.3338C32.5656 42.3201 32.6153 39.0895 33.6367 36.1067L33.8402 35.939C34.9322 35.0393 35.9192 34.7021 36.8289 34.8254C37.743 34.9493 38.6417 35.5464 39.5362 36.6532C39.8454 37.0394 40.207 37.3805 40.6106 37.6666L40.6115 37.6672C40.7648 37.7748 40.9735 38.0316 41.1739 38.4152C41.3703 38.791 41.545 39.2626 41.6451 39.7715C41.8465 40.7949 41.739 41.9203 40.9697 42.7413L40.9184 42.796L40.9057 42.87L39.553 50.7648L39.5487 50.7898L39.5495 50.8152C39.5848 51.8943 39.4089 52.5199 39.1273 52.8275C38.8725 53.1057 38.4637 53.1857 37.8131 52.9696C37.1627 52.7535 36.3418 52.2601 35.3692 51.5118C34.4325 50.7912 33.3698 49.8459 32.2028 48.7143L33.4888 45.5004Z" fill="#F4F7FA" stroke="black" stroke-width="0.5"/>
<path d="M49.765 46.533L45.2711 46.2464L45.7755 44.708L48.9864 44.9581L49.1528 44.9711L49.2286 44.8222C49.3112 44.6599 49.4284 44.5177 49.5719 44.4055C49.7153 44.2934 49.8816 44.2142 50.059 44.1733C50.2364 44.1325 50.4206 44.1311 50.5986 44.1691C50.771 44.206 50.9335 44.2791 51.0754 44.3834L51.0907 44.3947C51.3366 44.5783 51.5067 44.8458 51.5687 45.1465C51.6307 45.4472 51.5803 45.7603 51.4271 46.0263C51.2738 46.2923 51.0284 46.4928 50.7373 46.5898C50.4462 46.6868 50.1297 46.6736 49.8476 46.5527L49.808 46.5358L49.765 46.533Z" fill="#F4F7FA" stroke="black" stroke-width="0.5"/>
<path d="M39.1204 38.9355L39.1205 38.9357L40.6014 43.0328L40.6511 43.1705L40.7956 43.1945L48.2266 44.4251L47.7731 47.198L38.4281 45.4523L35.3413 40.2745C35.1695 39.78 35.1977 39.2374 35.4205 38.763C35.6466 38.2816 36.0546 37.9097 36.5547 37.7293C37.0548 37.5488 37.606 37.5745 38.0872 37.8007C38.5684 38.0269 38.94 38.4351 39.1204 38.9355Z" fill="#F4F7FA" stroke="black" stroke-width="0.5"/>
<path d="M30.2545 28.0834C32.4185 28.0834 34.1728 26.3283 34.1728 24.1633C34.1728 21.9983 32.4185 20.2432 30.2545 20.2432C28.0906 20.2432 26.3363 21.9983 26.3363 24.1633C26.3363 26.3283 28.0906 28.0834 30.2545 28.0834Z" fill="#7247FF"/>
<path d="M26.8749 27.4102C27.382 27.7769 27.9696 28.0167 28.5884 28.1097C29.2072 28.2027 29.8392 28.146 30.4316 27.9445C31.0241 27.7429 31.5596 27.4024 31.9935 26.9513C32.4274 26.5002 32.7471 25.9518 32.9257 25.3518C32.8581 25.8895 32.6798 26.4073 32.4021 26.8726C32.1244 27.3379 31.7533 27.7405 31.3122 28.055C30.8711 28.3696 30.3696 28.5892 29.8394 28.7001C29.3092 28.8109 28.7618 28.8106 28.2317 28.6991C27.7016 28.5876 27.2004 28.3674 26.7597 28.0523C26.319 27.7373 25.9483 27.3342 25.6712 26.8686C25.394 26.403 25.2164 25.8849 25.1494 25.3471C25.0825 24.8094 25.1277 24.2635 25.2822 23.7441C25.1945 24.442 25.296 25.1505 25.5762 25.7956C25.8565 26.4406 26.305 26.9983 26.8749 27.4102Z" fill="#7247FF"/>
<path d="M42.3379 27.4136C41.6539 26.1884 41.3922 25.6766 40.5102 24.9316C39.7303 24.2727 38.7709 24.0792 37.9972 24.7035C37.0818 24.3078 36.0633 24.2181 35.0929 24.4477C34.1225 24.6772 33.252 25.2139 32.6107 25.9778C31.9694 26.7418 31.5915 27.6923 31.5332 28.6883C31.4749 29.6842 31.7392 30.6724 32.2869 31.5061C32.8347 32.3397 33.6366 32.9744 34.5735 33.3158C35.5105 33.6572 36.5325 33.687 37.4878 33.401C38.4431 33.115 39.2807 32.5283 39.8762 31.728C40.4717 30.9278 40.7932 29.9568 40.7932 28.9591C40.7925 28.7839 40.7819 28.6089 40.7616 28.4349C41.4342 28.3404 41.6653 27.5081 42.3379 27.4136Z" fill="#7247FF"/>
<path d="M163.04 56.7554L163.04 56.7538C163.051 56.5199 163.113 56.2912 163.222 56.084C163.331 55.8767 163.484 55.6959 163.67 55.5543C163.857 55.4126 164.072 55.3135 164.3 55.2641C164.529 55.2146 164.766 55.2159 164.994 55.2679L165.157 55.305L165.253 55.1687L167.587 51.8781L169.564 52.663L166.229 57.2271L166.204 57.2618L166.192 57.3031C166.079 57.6812 165.831 58.0047 165.496 58.2124C165.161 58.4201 164.761 58.4975 164.372 58.43C163.984 58.3625 163.634 58.1548 163.388 57.8461C163.142 57.5375 163.018 57.1494 163.04 56.7554Z" fill="#F4F7FA" stroke="black" stroke-width="0.5"/>
<path d="M174.688 46.8249L167.56 56.0761L165.776 53.756L170.041 46.5794L170.103 46.4763L170.061 46.364L168.32 41.7216L170.605 35.6272C170.948 35.8412 171.789 36.5267 171.942 38.1718L171.944 38.1987L171.953 38.2245L174.688 46.8249Z" fill="#F4F7FA" stroke="black" stroke-width="0.5"/>
<path d="M141.809 27.1027L141.81 27.1029C142.042 27.1321 142.265 27.2118 142.463 27.3364C142.661 27.4611 142.83 27.6277 142.957 27.8246C143.083 28.0214 143.165 28.2437 143.197 28.4757C143.229 28.7077 143.209 28.9438 143.14 29.1675L143.09 29.3268L143.218 29.4337L146.317 32.0162L145.382 33.9268L141.092 30.2482L141.059 30.2202L141.019 30.2047C140.651 30.063 140.348 29.7911 140.167 29.4406C139.986 29.09 139.94 28.6852 140.037 28.3028C140.134 27.9205 140.368 27.5871 140.695 27.3659C141.021 27.1448 141.418 27.0511 141.809 27.1027Z" fill="#F4F7FA" stroke="black" stroke-width="0.5"/>
<path d="M150.804 39.49L142.136 31.6649L144.586 30.0648L151.407 34.8738L151.506 34.943L151.621 34.9096L156.381 33.5329L162.278 36.2827C162.038 36.6086 161.29 37.3951 159.639 37.42L159.612 37.4205L159.586 37.4266L150.804 39.49Z" fill="#F4F7FA" stroke="black" stroke-width="0.5"/>
<path d="M157.077 89.1808H155.129L154.039 80.3428L157.078 80.343L157.077 89.1808Z" fill="#F4F7FA" stroke="black" stroke-width="0.5"/>
<path d="M153.179 88.9893H157.596V91.429H150.502C150.527 91.1615 150.592 90.8987 150.695 90.6496C150.83 90.3233 151.029 90.0268 151.278 89.777C151.528 89.5273 151.824 89.3291 152.15 89.194C152.476 89.0588 152.826 88.9893 153.179 88.9893Z" fill="#F4F7FA" stroke="black" stroke-width="0.5"/>
<path d="M166.749 89.1808H164.8L163.71 80.3428L166.749 80.343L166.749 89.1808Z" fill="#F4F7FA" stroke="black" stroke-width="0.5"/>
<path d="M162.85 88.9893H167.267V91.429H160.174C160.199 91.1615 160.264 90.8987 160.367 90.6496C160.502 90.3233 160.7 90.0268 160.949 89.777C161.199 89.5273 161.495 89.3291 161.822 89.194C162.148 89.0588 162.497 88.9893 162.85 88.9893Z" fill="#F4F7FA" stroke="black" stroke-width="0.5"/>
<path d="M167.605 55.6125L167.412 69.166L167.412 69.1668L167.217 87.0631L163.353 86.7116L161.2 61.8416L160.703 61.8358L157.964 86.6916H153.951L153.504 61.6984L155.024 56.3752L167.605 55.6125Z" fill="#F4F7FA" stroke="black" stroke-width="0.5"/>
<path d="M154.499 55.9915L154.456 55.9732L154.41 55.9712L154.035 55.955L157.057 39.3021L157.066 39.2496L157.054 39.1978L155.795 34.0793C155.795 34.0793 155.795 34.0793 155.795 34.0792C155.745 33.8723 155.772 33.654 155.871 33.4656C155.97 33.2772 156.135 33.1318 156.334 33.057L158.598 32.2078L158.706 32.1674L158.745 32.0591L159.478 30.043L165.389 30.6802L165.526 32.1957L165.54 32.3607L165.698 32.4113C166.036 32.5198 167.598 33.0383 169.023 33.7914C169.736 34.1688 170.4 34.597 170.858 35.0514C171.322 35.5109 171.529 35.9495 171.454 36.3616C171.266 37.3971 170.61 39.5669 169.98 41.5373C169.353 43.5003 168.759 45.2421 168.701 45.4096L168.69 45.4439L168.688 45.4801L168.298 54.8509C168.265 54.8663 168.223 54.8858 168.173 54.9089C168.042 54.9691 167.851 55.054 167.609 55.1552C167.125 55.3576 166.435 55.6251 165.6 55.8918C163.929 56.4258 161.688 56.9532 159.36 56.953V56.9529L159.356 56.953C157.687 56.981 156.031 56.6532 154.499 55.9915Z" fill="#F4F7FA" stroke="black" stroke-width="0.5"/>
<path d="M166.51 24.1398C166.51 26.5121 164.588 28.4349 162.218 28.4349C159.847 28.4349 157.925 26.5121 157.925 24.1398C157.925 21.7676 159.847 19.8447 162.218 19.8447C164.588 19.8447 166.51 21.7676 166.51 24.1398Z" fill="#F4F7FA" stroke="black" stroke-width="0.5"/>
<path d="M165.897 28.5392C165.031 29.4618 163.424 28.9665 163.311 27.706C163.302 27.6082 163.303 27.5097 163.313 27.4119C163.371 26.8536 163.693 26.3467 163.616 25.7571C163.599 25.6104 163.544 25.4706 163.457 25.3509C162.767 24.4266 161.148 25.7643 160.497 24.9276C160.098 24.4145 160.567 23.6067 160.261 23.0333C159.856 22.2764 158.658 22.6498 157.907 22.2353C157.072 21.7741 157.122 20.4913 157.672 19.7111C158.343 18.7595 159.519 18.2518 160.681 18.1786C161.842 18.1054 162.996 18.4196 164.08 18.8424C165.312 19.3228 166.534 19.9868 167.292 21.0707C168.215 22.389 168.303 24.1612 167.842 25.7026C167.562 26.6403 166.604 27.7857 165.897 28.5392Z" fill="#7247FF"/>
<path d="M117.039 86.5543L116.535 87.8521L110.305 85.4289L111.108 83.362L117.039 86.5543Z" fill="#F4F7FA" stroke="black" stroke-width="0.5"/>
<path d="M117.501 85.0676L117.501 85.0674C117.6 84.8117 117.749 84.578 117.938 84.3798C118.128 84.1816 118.354 84.0227 118.605 83.9122C118.856 83.8017 119.126 83.7418 119.4 83.7358C119.616 83.7312 119.832 83.7601 120.038 83.8213L118.046 88.9499L116.262 88.2557L116.343 88.0456L116.344 88.0453L117.045 86.2384L117.045 86.2383L117.501 85.0676Z" fill="#F4F7FA" stroke="black" stroke-width="0.5"/>
<path d="M114.886 87.3737C113.118 87.5633 111.176 87.1139 109.352 86.4098L109.352 86.4097C108.603 86.1207 107.869 85.7931 107.154 85.4284L107.153 85.428C106.092 84.8917 105.142 84.3252 104.382 83.8401C103.811 83.4734 103.349 83.1525 103.031 82.9235C102.871 82.8091 102.748 82.7177 102.664 82.6551C102.623 82.6238 102.591 82.5997 102.57 82.5835L102.546 82.5653L102.54 82.5609L102.539 82.5598L102.539 82.5596L102.539 82.5596L102.539 82.5596L114.886 87.3737ZM114.886 87.3737L115.583 85.5235L115.817 85.6117L115.583 85.5235L115.8 84.9474L104.918 78.9523L104.899 78.9416L104.881 78.9276L104.881 78.9276L104.881 78.9275L104.881 78.9275L104.881 78.9268L104.876 78.9232L104.856 78.9078C104.839 78.8941 104.812 78.8735 104.776 78.8475C104.706 78.7954 104.602 78.7215 104.47 78.6358C104.207 78.464 103.836 78.2468 103.405 78.0633C102.532 77.6919 101.469 77.4815 100.54 77.9759L100.54 77.9761C99.9551 78.2866 99.0866 78.7222 98.142 79.1855L98.1419 79.1855C96.3078 80.0837 94.1826 81.0941 93.2782 81.5222C93.1535 81.5812 92.8289 81.7763 92.5196 81.9675C92.3898 82.0477 92.2664 82.1249 92.1677 82.1869C92.175 82.1973 92.1825 82.208 92.1902 82.219C92.2985 82.3731 92.4569 82.5913 92.6563 82.8467C93.056 83.3584 93.6168 84.0143 94.2662 84.6003C94.9184 85.1888 95.6436 85.6916 96.3707 85.9181C97.0862 86.141 97.797 86.0962 98.4657 85.6001C98.8683 85.3002 99.2447 85.0131 99.595 84.7388L99.5957 84.7383C100.515 84.0237 101.24 83.4167 101.694 83.0283C101.863 82.8834 101.994 82.7688 102.083 82.6907C102.127 82.6516 102.161 82.6216 102.184 82.6014L102.209 82.5787L102.215 82.573L102.217 82.5717L102.217 82.5714L102.217 82.5713L102.217 82.5713L114.886 87.3737Z" fill="#F4F7FA" stroke="black" stroke-width="0.5"/>
<path opacity="0.14" d="M114.886 87.3737C113.118 87.5633 111.176 87.1139 109.352 86.4098L109.352 86.4097C108.603 86.1207 107.869 85.7931 107.154 85.4284L107.153 85.428C106.092 84.8917 105.142 84.3252 104.382 83.8401C103.811 83.4734 103.349 83.1525 103.031 82.9235C102.871 82.8091 102.748 82.7177 102.664 82.6551C102.623 82.6238 102.591 82.5997 102.57 82.5835L102.546 82.5653L102.54 82.5609L102.539 82.5598L102.539 82.5596L102.539 82.5596L102.539 82.5596L114.886 87.3737ZM114.886 87.3737L115.583 85.5235L115.817 85.6117L115.583 85.5235L115.8 84.9474L104.918 78.9523L104.899 78.9416L104.881 78.9276L104.881 78.9276L104.881 78.9275L104.881 78.9275L104.881 78.9268L104.876 78.9232L104.856 78.9078C104.839 78.8941 104.812 78.8735 104.776 78.8475C104.706 78.7954 104.602 78.7215 104.47 78.6358C104.207 78.464 103.836 78.2468 103.405 78.0633C102.532 77.6919 101.469 77.4815 100.54 77.9759L100.54 77.9761C99.9551 78.2866 99.0866 78.7222 98.142 79.1855L98.1419 79.1855C96.3078 80.0837 94.1826 81.0941 93.2782 81.5222C93.1535 81.5812 92.8289 81.7763 92.5196 81.9675C92.3898 82.0477 92.2664 82.1249 92.1677 82.1869C92.175 82.1973 92.1825 82.208 92.1902 82.219C92.2985 82.3731 92.4569 82.5913 92.6563 82.8467C93.056 83.3584 93.6168 84.0143 94.2662 84.6003C94.9184 85.1888 95.6436 85.6916 96.3707 85.9181C97.0862 86.141 97.797 86.0962 98.4657 85.6001C98.8683 85.3002 99.2447 85.0131 99.595 84.7388L99.5957 84.7383C100.515 84.0237 101.24 83.4167 101.694 83.0283C101.863 82.8834 101.994 82.7688 102.083 82.6907C102.127 82.6516 102.161 82.6216 102.184 82.6014L102.209 82.5787L102.215 82.573L102.217 82.5717L102.217 82.5714L102.217 82.5713L102.217 82.5713L114.886 87.3737Z" fill="#F4F7FA" stroke="black" stroke-width="0.5"/>
<path d="M86.3247 68.486H77.5131C77.3319 68.4858 77.1581 68.4137 77.0299 68.2854C76.9018 68.1572 76.8297 67.9833 76.8295 67.802V64.0021C76.8295 62.6516 77.3657 61.3565 78.3201 60.4015C79.2746 59.4466 80.5691 58.9102 81.9189 58.9102C83.2687 58.9102 84.5632 59.4466 85.5177 60.4015C86.4721 61.3565 87.0083 62.6516 87.0083 64.0021V67.802C87.0081 67.9833 86.936 68.1572 86.8079 68.2854C86.6797 68.4137 86.5059 68.4858 86.3247 68.486Z" fill="#7247FF"/>
<path d="M93.9048 75.2226L93.8476 75.0658C93.7886 74.9044 93.7657 74.7321 93.7806 74.5609C93.7954 74.3897 93.8476 74.2238 93.9334 74.075L93.7168 73.9501L93.9334 74.075C94.0192 73.9261 94.1366 73.798 94.2773 73.6995C94.4132 73.6043 94.5676 73.5391 94.7304 73.508L94.7492 73.5045C95.0339 73.4526 95.3278 73.507 95.5751 73.6573L95.705 73.4437L95.5751 73.6573C95.8225 73.8077 96.0061 74.0437 96.0912 74.3205C96.1763 74.5973 96.157 74.8958 96.0369 75.1593C95.9168 75.4228 95.7042 75.633 95.4395 75.7502L95.4002 75.7676L95.3689 75.7972L92.2636 78.7363L91.5304 77.4075L93.782 75.3355L93.9048 75.2226Z" fill="#F4F7FA" stroke="black" stroke-width="0.5"/>
<path d="M87.1911 83.0199L87.1904 83.0198C86.5863 82.9694 86.0049 82.7662 85.5007 82.4294C84.9966 82.0925 84.5862 81.633 84.3081 81.094L84.3078 81.0934L80.4691 73.7014C80.4691 73.7014 80.4691 73.7014 80.4691 73.7014C80.2473 73.2741 80.1986 72.7777 80.3332 72.3154C80.4678 71.8531 80.7754 71.4606 81.1919 71.2194C81.6084 70.9782 82.1017 70.907 82.5694 71.0205C83.0311 71.1326 83.4326 71.4162 83.6927 71.8135L87.2262 79.7457L87.359 80.0438L87.6123 79.838L92.3183 76.0125L94.6348 76.9147L90.1668 81.8497C90.1666 81.8499 90.1665 81.85 90.1664 81.8501C89.8276 82.2221 89.4151 82.5194 88.9552 82.723C88.4951 82.9267 87.9976 83.0323 87.4945 83.033C87.3936 83.033 87.2924 83.0286 87.1911 83.0199Z" fill="#F4F7FA" stroke="black" stroke-width="0.5"/>
<path d="M116.624 89.0293L116.021 90.2845L109.996 87.3896L110.956 85.3905L116.624 89.0293Z" fill="#F4F7FA" stroke="black" stroke-width="0.5"/>
<path d="M117.198 87.5834L117.199 87.5832C117.317 87.3359 117.483 87.1144 117.687 86.9313C117.892 86.7482 118.13 86.6072 118.388 86.5164C118.647 86.4255 118.921 86.3865 119.195 86.4016C119.411 86.4135 119.623 86.4589 119.824 86.5358L117.444 91.4962L115.719 90.6669L115.816 90.4636L115.816 90.4634L116.655 88.7158L116.655 88.7157L117.198 87.5834Z" fill="#F4F7FA" stroke="black" stroke-width="0.5"/>
<path d="M115.512 87.332L105.123 80.5182L105.104 80.5059L105.088 80.4907L105.088 80.4907L105.088 80.4906L105.088 80.4906L105.087 80.4899L105.083 80.4859L105.065 80.4691C105.048 80.454 105.023 80.4314 104.989 80.4028C104.923 80.3454 104.825 80.2637 104.701 80.1682C104.451 79.9766 104.098 79.7315 103.682 79.5154C102.84 79.078 101.796 78.7865 100.833 79.2081L100.832 79.2083C100.225 79.4729 99.326 79.8405 98.3487 80.2298L98.3486 80.2298C96.451 80.9844 94.2544 81.8284 93.3198 82.1857M115.512 87.332L91.883 81.9461M115.512 87.332L115.252 87.8897L114.414 89.6808C112.637 89.734 110.735 89.1366 108.971 88.2944L108.971 88.2944C108.246 87.9486 107.54 87.5656 106.855 87.1469L106.854 87.1465C105.837 86.5302 104.933 85.8924 104.213 85.3504C103.672 84.9408 103.236 84.5853 102.936 84.3326C102.786 84.2062 102.67 84.1055 102.591 84.0367C102.552 84.0023 102.522 83.9759 102.502 83.9581L102.48 83.9382L102.475 83.9333L102.474 83.9322L102.473 83.9319L102.473 83.9319L102.473 83.9319L115.512 87.332ZM93.3198 82.1857L93.2305 81.9522M93.3198 82.1857L93.2305 81.9522M93.3198 82.1857C93.1746 82.2413 93.0598 82.285 92.9812 82.3149L92.8913 82.349L92.8681 82.3578L92.8622 82.36L92.8607 82.3606L92.8604 82.3608L92.8603 82.3608L92.8602 82.3608L92.8602 82.3608L92.7717 82.127L92.8602 82.3608L92.7927 82.3864L92.7219 82.372L91.8334 82.1911L91.883 81.9461M93.2305 81.9522C94.1649 81.595 96.3602 80.7514 98.2562 79.9975M93.2305 81.9522L98.2562 79.9975M91.883 81.9461L91.8332 82.1911L89.3252 81.6835L89.325 81.6834L87.1586 81.2435M91.883 81.9461L89.3748 81.4384L87.1217 80.9809M87.1586 81.2435L87.237 81.2028L87.1217 80.9809M87.1586 81.2435L87.072 81.2259L87.1217 80.9809M87.1586 81.2435L82.0423 83.9018M87.1217 80.9809L81.8151 83.7382M81.8151 83.7382L82.0613 83.7815L82.0613 83.7816L82.0611 83.7825L82.0604 83.7866L82.0575 83.8042C82.0548 83.8201 82.051 83.844 82.0462 83.8755C82.045 83.8837 82.0437 83.8925 82.0423 83.9018M81.8151 83.7382L81.9303 83.96L82.0423 83.9018M81.8151 83.7382L102.318 83.7904L102.152 83.9189L102.152 83.9189L102.152 83.9192L102.15 83.9204L102.143 83.9256L102.116 83.9463C102.092 83.9646 102.056 83.992 102.009 84.0275C101.915 84.0987 101.775 84.2029 101.595 84.3344C101.113 84.6868 100.343 85.2361 99.3717 85.8779L99.371 85.8784C99.0007 86.1249 98.6034 86.3822 98.1791 86.6502C95.0419 88.6237 90.6186 91.0008 86.8804 91.5006L86.8804 91.5006C85.271 91.716 84.1966 91.3381 83.4709 90.6871C82.7359 90.0278 82.3237 89.0575 82.1086 88.0268C81.8941 86.9988 81.8814 85.9374 81.9237 85.1283C81.9448 84.7248 81.9795 84.3865 82.0088 84.1496C82.0215 84.0468 82.0332 83.9632 82.0423 83.9018M98.2562 79.9975C99.233 79.6084 100.129 79.2421 100.733 78.9791C102.869 78.0443 105.26 80.3091 105.26 80.3091L98.2562 79.9975Z" fill="#F4F7FA" stroke="black" stroke-width="0.5"/>
<path d="M72.0486 91.7174L72.0501 91.7308L72.047 91.7178C71.7654 91.7844 71.4691 91.7453 71.2143 91.6079C70.9596 91.4705 70.764 91.2444 70.6647 90.9723C70.5653 90.7003 70.5692 90.4012 70.6756 90.1319C70.7819 89.8625 70.9833 89.6415 71.2416 89.5108L71.28 89.4914L71.3097 89.4602L74.259 86.3644L75.0599 87.6535L72.9183 89.8392L72.8016 89.9584L72.8668 90.1119C72.934 90.2701 72.9658 90.441 72.9598 90.6127C72.9538 90.7845 72.9103 90.9528 72.8323 91.1059C72.7543 91.2589 72.6437 91.393 72.5083 91.4987C72.3729 91.6043 72.216 91.679 72.0486 91.7174Z" fill="#F4F7FA" stroke="black" stroke-width="0.5"/>
<path d="M86.4692 65.1005C86.4692 66.9258 84.9904 68.4052 83.1663 68.4052C81.3423 68.4052 79.8634 66.9258 79.8634 65.1005C79.8634 63.2753 81.3423 61.7959 83.1663 61.7959C84.9904 61.7959 86.4692 63.2753 86.4692 65.1005Z" fill="#F4F7FA" stroke="black" stroke-width="0.5"/>
<path d="M81.8532 83.8754L81.9143 83.7743L81.875 83.663L78.8029 74.949L79.6888 70.5159L84.2599 69.7034L87.82 74.0385L87.8372 74.0595L87.8585 74.0762L87.884 74.0963L87.9007 74.1095L87.9194 74.1196C88.5267 74.4496 88.9839 75.0006 89.1965 75.6584C89.4236 76.4546 89.2285 77.4049 88.5423 78.5034L88.5421 78.5037L88.5278 78.5266L88.481 78.6018L88.4919 78.6898L88.7297 80.593L81.6403 85.5508C81.6129 85.5354 81.587 85.5172 81.5631 85.4966C81.5117 85.4522 81.4705 85.3973 81.4421 85.3356C81.3903 85.2162 81.3765 85.0403 81.437 84.7932C81.4975 84.5465 81.6274 84.2489 81.8346 83.9062L81.8346 83.9061L81.8532 83.8754Z" fill="#F4F7FA" stroke="black" stroke-width="0.5"/>
<path d="M84.0446 74.7219L79.7672 81.1335L79.7665 81.1345L73.819 89.9573L72.0693 87.8028L76.9763 79.6984L76.9914 79.6735L77.0003 79.6458L79.3306 72.4392L79.165 72.3857L79.3306 72.4392C79.4469 72.0795 79.639 71.749 79.8938 71.4698C80.1486 71.1906 80.4602 70.9694 80.8077 70.8209C81.1552 70.6724 81.5304 70.6002 81.9082 70.6091C82.2859 70.618 82.6573 70.7078 82.9974 70.8725C83.3375 71.0372 83.6384 71.2729 83.8798 71.5638C84.1212 71.8546 84.2974 72.1939 84.3967 72.5587C84.4959 72.9235 84.5159 73.3053 84.4551 73.6785C84.3944 74.0516 84.2544 74.4074 84.0446 74.7219Z" fill="#F4F7FA" stroke="black" stroke-width="0.5"/>
<path d="M88.2123 64.3813H82.8243L82.769 63.6073L82.4927 64.3813H81.6631L81.5536 62.8473L81.0061 64.3813H79.4008V64.3053C79.402 63.2374 79.8265 62.2135 80.5812 61.4584C81.336 60.7033 82.3593 60.2786 83.4267 60.2773H84.1863C85.2537 60.2785 86.277 60.7033 87.0318 61.4584C87.7865 62.2135 88.2111 63.2374 88.2123 64.3053V64.3813Z" fill="#7247FF"/>
<path d="M82.7801 69.1947C82.7395 69.1947 82.699 69.1911 82.6591 69.184L78.7137 68.4876V61.9639H83.0568L82.9493 62.0893C81.4533 63.8349 82.5804 66.6654 83.3853 68.1972C83.4447 68.3094 83.4711 68.4361 83.4617 68.5627C83.4522 68.6893 83.4072 68.8106 83.3318 68.9127C83.2687 69 83.1858 69.0711 83.0899 69.1201C82.994 69.1692 82.8878 69.1947 82.7801 69.1947Z" fill="#7247FF"/>
<path d="M141.725 57.5068V66.6973H101.031L95.1548 73.7511L95.8259 66.6973H92.9668V57.5068H141.725Z" fill="#F0F0F0"/>
<path d="M109.885 63.7532C110.805 63.7532 111.55 63.0074 111.55 62.0875C111.55 61.1676 110.805 60.4219 109.885 60.4219C108.966 60.4219 108.22 61.1676 108.22 62.0875C108.22 63.0074 108.966 63.7532 109.885 63.7532Z" fill="white"/>
<path d="M104.267 63.7532C105.186 63.7532 105.931 63.0074 105.931 62.0875C105.931 61.1676 105.186 60.4219 104.267 60.4219C103.347 60.4219 102.602 61.1676 102.602 62.0875C102.602 63.0074 103.347 63.7532 104.267 63.7532Z" fill="white"/>
<path d="M98.6476 63.7532C99.5671 63.7532 100.312 63.0074 100.312 62.0875C100.312 61.1676 99.5671 60.4219 98.6476 60.4219C97.7282 60.4219 96.9828 61.1676 96.9828 62.0875C96.9828 63.0074 97.7282 63.7532 98.6476 63.7532Z" fill="white"/>
<path d="M189.792 91.8617H0.208105C0.152912 91.8617 0.0999797 91.8398 0.0609524 91.8007C0.0219251 91.7617 0 91.7087 0 91.6535C0 91.5983 0.0219251 91.5453 0.0609524 91.5063C0.0999797 91.4673 0.152912 91.4453 0.208105 91.4453H189.792C189.847 91.4453 189.9 91.4673 189.939 91.5063C189.978 91.5453 190 91.5983 190 91.6535C190 91.7087 189.978 91.7617 189.939 91.8007C189.9 91.8398 189.847 91.8617 189.792 91.8617Z" fill="#CACACA"/>
</g>
<defs>
<linearGradient id="paint0_linear" x1="47.5602" y1="18.0819" x2="94.1898" y2="18.5323" gradientUnits="userSpaceOnUse">
<stop stop-color="#4614E8"/>
<stop offset="1" stop-color="#BCA7FF"/>
</linearGradient>
<clipPath id="clip0">
<rect width="190" height="92" fill="white"/>
</clipPath>
</defs>
</svg>
