<svg width="143" height="104" viewBox="0 0 143 104" fill="none" xmlns="http://www.w3.org/2000/svg">
<g clip-path="url(#clip0)">
<path d="M91.1266 77.9658V103.036H28.5259C21.3934 103.036 15.5903 97.4126 15.5903 90.5009C15.5903 83.5892 21.3934 77.9658 28.5259 77.9658H91.1266Z" fill="#F2F2F2"/>
<path d="M92.6644 102.843C92.6643 103.098 92.563 103.344 92.3828 103.524C92.2026 103.705 91.9582 103.807 91.7033 103.807H27.411C23.9192 103.807 20.5703 102.415 18.1012 99.9377C15.6321 97.4603 14.245 94.1003 14.245 90.5968C14.245 87.0933 15.6321 83.7332 18.1012 81.2559C20.5703 78.7785 23.9192 77.3867 27.411 77.3867H91.7033C91.9582 77.3867 92.2027 77.4883 92.3829 77.6691C92.5631 77.85 92.6644 78.0952 92.6644 78.351C92.6644 78.6067 92.5631 78.8519 92.3829 79.0328C92.2027 79.2136 91.9582 79.3152 91.7033 79.3152H27.411C24.4289 79.3152 21.569 80.5038 19.4603 82.6195C17.3517 84.7352 16.167 87.6047 16.167 90.5968C16.167 93.5888 17.3517 96.4584 19.4603 98.5741C21.569 100.69 24.4289 101.878 27.411 101.878H91.7033C91.9582 101.878 92.2026 101.98 92.3828 102.161C92.563 102.342 92.6643 102.587 92.6644 102.843Z" fill="url(#paint0_linear)"/>
<path d="M91.1268 83.7509H23.8553C23.8043 83.7509 23.7554 83.7306 23.7194 83.6945C23.6833 83.6583 23.6631 83.6092 23.6631 83.5581C23.6631 83.5069 23.6833 83.4579 23.7194 83.4217C23.7554 83.3856 23.8043 83.3652 23.8553 83.3652H91.1268C91.1778 83.3652 91.2267 83.3856 91.2627 83.4217C91.2988 83.4579 91.319 83.5069 91.319 83.5581C91.319 83.6092 91.2988 83.6583 91.2627 83.6945C91.2267 83.7306 91.1778 83.7509 91.1268 83.7509Z" fill="#CCCCCC"/>
<path d="M91.1268 88.3798H23.8553C23.8043 88.3798 23.7554 88.3595 23.7194 88.3234C23.6833 88.2872 23.6631 88.2381 23.6631 88.187C23.6631 88.1358 23.6833 88.0868 23.7194 88.0506C23.7554 88.0145 23.8043 87.9941 23.8553 87.9941H91.1268C91.1778 87.9941 91.2267 88.0145 91.2627 88.0506C91.2988 88.0868 91.319 88.1358 91.319 88.187C91.319 88.2381 91.2988 88.2872 91.2627 88.3234C91.2267 88.3595 91.1778 88.3798 91.1268 88.3798Z" fill="#CCCCCC"/>
<path d="M91.1268 93.0078H23.8553C23.8043 93.0078 23.7554 92.9875 23.7194 92.9513C23.6833 92.9151 23.6631 92.8661 23.6631 92.8149C23.6631 92.7638 23.6833 92.7147 23.7194 92.6786C23.7554 92.6424 23.8043 92.6221 23.8553 92.6221H91.1268C91.1778 92.6221 91.2267 92.6424 91.2627 92.6786C91.2988 92.7147 91.319 92.7638 91.319 92.8149C91.319 92.8661 91.2988 92.9151 91.2627 92.9513C91.2267 92.9875 91.1778 93.0078 91.1268 93.0078Z" fill="#CCCCCC"/>
<path d="M91.1268 97.6357H23.8553C23.8043 97.6357 23.7554 97.6154 23.7194 97.5792C23.6833 97.543 23.6631 97.494 23.6631 97.4428C23.6631 97.3917 23.6833 97.3427 23.7194 97.3065C23.7554 97.2703 23.8043 97.25 23.8553 97.25H91.1268C91.1778 97.25 91.2267 97.2703 91.2627 97.3065C91.2988 97.3427 91.319 97.3917 91.319 97.4428C91.319 97.494 91.2988 97.543 91.2627 97.5792C91.2267 97.6154 91.1778 97.6357 91.1268 97.6357Z" fill="#CCCCCC"/>
<path d="M139.508 82.6847L123.831 102.206L75.0849 62.798C69.5309 58.3079 68.5287 50.2759 72.8507 44.8939C77.1728 39.5119 85.208 38.7862 90.762 43.2763L139.508 82.6847Z" fill="#F2F2F2"/>
<path d="M124.503 103.378L124.476 103.129C124.664 103.109 124.835 103.015 124.954 102.868C125.072 102.72 125.127 102.531 125.107 102.343C125.087 102.154 124.993 101.982 124.846 101.863L124.503 103.378ZM124.503 103.378L124.476 103.129C124.289 103.149 124.101 103.094 123.955 102.976L73.8915 62.5023C71.224 60.3458 69.5194 57.2143 69.153 53.7966C68.7866 50.3788 69.7883 46.9551 71.9377 44.2786C74.0871 41.6021 77.2079 39.8922 80.6135 39.5246C84.0192 39.157 87.431 40.1619 90.0984 42.3183L140.162 82.7917L140.162 82.7918C140.234 82.8506 140.295 82.9232 140.34 83.0055C140.385 83.0879 140.413 83.1784 140.423 83.2718C140.433 83.3652 140.425 83.4596 140.398 83.5498C140.372 83.6399 140.328 83.7239 140.27 83.7969C140.211 83.8699 140.139 83.9306 140.057 83.9755C139.975 84.0204 139.885 84.0486 139.792 84.0586C139.699 84.0686 139.605 84.0602 139.516 84.0338C139.426 84.0073 139.343 83.9635 139.27 83.9046L139.27 83.9045L89.2068 43.4312C89.2068 43.4312 89.2068 43.4312 89.2068 43.4311C88.0315 42.4803 86.6811 41.771 85.2325 41.3439C83.7839 40.9167 82.2655 40.7801 80.7643 40.9418C79.263 41.1036 77.8082 41.5605 76.4831 42.2865C75.1579 43.0124 73.9883 43.9932 73.0411 45.1727C72.0939 46.3522 71.3876 47.7073 70.9625 49.1607C70.5374 50.614 70.4019 52.1372 70.5637 53.6431C70.7254 55.149 71.1813 56.6082 71.9053 57.9373C72.6292 59.2665 73.6071 60.4395 74.783 61.3895C74.7831 61.3895 74.7831 61.3895 74.7831 61.3895L124.846 101.863L124.503 103.378Z" stroke="black" stroke-width="0.5"/>
<path d="M135.89 87.1899L83.5072 44.8411C83.4875 44.8252 83.4712 44.8055 83.4591 44.7833C83.447 44.7611 83.4393 44.7367 83.4366 44.7115C83.4339 44.6863 83.4362 44.6609 83.4433 44.6366C83.4504 44.6123 83.4622 44.5896 83.4781 44.5699C83.4939 44.5502 83.5135 44.5338 83.5356 44.5216C83.5578 44.5095 83.5821 44.5019 83.6072 44.4992C83.6323 44.4964 83.6577 44.4987 83.6819 44.5059C83.7061 44.513 83.7287 44.5248 83.7483 44.5407L136.131 86.8895C136.151 86.9054 136.167 86.925 136.18 86.9473C136.192 86.9695 136.199 86.9939 136.202 87.0191C136.205 87.0443 136.202 87.0698 136.195 87.0941C136.188 87.1185 136.176 87.1411 136.161 87.1609C136.145 87.1806 136.125 87.197 136.103 87.2091C136.081 87.2213 136.056 87.2289 136.031 87.2316C136.006 87.2343 135.981 87.232 135.957 87.2248C135.932 87.2177 135.91 87.2058 135.89 87.1899V87.1899Z" fill="#CCCCCC"/>
<path d="M132.996 90.7933L80.6129 48.4444C80.5733 48.4123 80.548 48.3657 80.5426 48.3149C80.5372 48.2641 80.5521 48.2132 80.5841 48.1734C80.616 48.1336 80.6624 48.1082 80.713 48.1027C80.7637 48.0972 80.8144 48.1121 80.8541 48.1441L133.237 90.4929C133.257 90.5088 133.273 90.5284 133.285 90.5506C133.297 90.5729 133.305 90.5973 133.308 90.6225C133.311 90.6477 133.308 90.6732 133.301 90.6975C133.294 90.7218 133.282 90.7445 133.266 90.7642C133.251 90.784 133.231 90.8004 133.209 90.8125C133.187 90.8247 133.162 90.8323 133.137 90.835C133.112 90.8377 133.087 90.8354 133.062 90.8282C133.038 90.8211 133.016 90.8092 132.996 90.7933Z" fill="#CCCCCC"/>
<path d="M130.102 94.3979L77.7187 52.0491C77.679 52.017 77.6537 51.9704 77.6482 51.9195C77.6427 51.8687 77.6576 51.8177 77.6896 51.7779C77.7216 51.7381 77.7681 51.7126 77.8187 51.7072C77.8694 51.7017 77.9202 51.7166 77.9599 51.7487L130.343 94.0976C130.363 94.1135 130.379 94.1331 130.391 94.1553C130.403 94.1775 130.411 94.2019 130.413 94.2271C130.416 94.2523 130.414 94.2777 130.407 94.302C130.4 94.3263 130.388 94.349 130.372 94.3687C130.356 94.3884 130.337 94.4048 130.314 94.417C130.292 94.4291 130.268 94.4368 130.243 94.4395C130.218 94.4422 130.192 94.4399 130.168 94.4328C130.144 94.4256 130.121 94.4138 130.102 94.3979V94.3979Z" fill="#CCCCCC"/>
<path d="M127.207 98.0014L74.8244 55.6526C74.8048 55.6367 74.7884 55.6171 74.7763 55.5948C74.7642 55.5726 74.7566 55.5482 74.7539 55.523C74.7512 55.4979 74.7535 55.4724 74.7606 55.4481C74.7677 55.4238 74.7795 55.4011 74.7954 55.3814C74.8112 55.3617 74.8307 55.3453 74.8529 55.3332C74.875 55.321 74.8994 55.3134 74.9245 55.3107C74.9496 55.308 74.9749 55.3102 74.9991 55.3174C75.0234 55.3245 75.046 55.3364 75.0656 55.3523L127.449 97.7011C127.468 97.7169 127.485 97.7365 127.497 97.7588C127.509 97.781 127.517 97.8054 127.519 97.8306C127.522 97.8558 127.52 97.8813 127.513 97.9056C127.506 97.93 127.494 97.9526 127.478 97.9724C127.462 97.9921 127.442 98.0085 127.42 98.0207C127.398 98.0328 127.374 98.0404 127.349 98.0431C127.324 98.0458 127.298 98.0435 127.274 98.0364C127.25 98.0292 127.227 98.0173 127.207 98.0014Z" fill="#CCCCCC"/>
<path d="M142.808 104H0.192204C0.141229 104 0.0923405 103.98 0.0562952 103.943C0.0202499 103.907 0 103.858 0 103.807C0 103.756 0.0202499 103.707 0.0562952 103.671C0.0923405 103.635 0.141229 103.614 0.192204 103.614H142.808C142.859 103.614 142.908 103.635 142.944 103.671C142.98 103.707 143 103.756 143 103.807C143 103.858 142.98 103.907 142.944 103.943C142.908 103.98 142.859 104 142.808 104Z" fill="#CCCCCC"/>
<path d="M64.7314 67.0765L64.7307 75.0802L63.0046 75.08L62.021 67.0762L64.7314 67.0765Z" fill="#F4F7FA" stroke="black" stroke-width="0.5"/>
<path d="M61.2136 74.9502H65.2013V77.1273H58.8083C58.8323 76.8942 58.8899 76.6655 58.9796 76.4482C59.1012 76.1537 59.2794 75.8861 59.504 75.6608C59.7285 75.4354 59.9951 75.2567 60.2885 75.1348C60.5818 75.0129 60.8961 74.9502 61.2136 74.9502Z" fill="#F4F7FA" stroke="black" stroke-width="0.5"/>
<path d="M42.2828 67.0765L42.2821 75.0802L40.556 75.08L39.5724 67.0762L42.2828 67.0765Z" fill="#F4F7FA" stroke="black" stroke-width="0.5"/>
<path d="M38.7652 74.9502H42.7529V77.1273H36.3599C36.384 76.8942 36.4415 76.6655 36.5312 76.4482C36.6528 76.1537 36.831 75.8861 37.0556 75.6608C37.2802 75.4354 37.5468 75.2567 37.8401 75.1348C38.1334 75.0129 38.4478 74.9502 38.7652 74.9502Z" fill="#F4F7FA" stroke="black" stroke-width="0.5"/>
<path d="M49.8715 12.2519V11.2877C49.8715 9.63822 50.5245 8.05631 51.687 6.88996C52.8494 5.72361 54.4261 5.06836 56.07 5.06836H56.0701C57.714 5.06836 59.2907 5.72361 60.4531 6.88996C61.6156 8.05631 62.2687 9.63822 62.2687 11.2877V12.2519C62.2687 13.4411 61.7978 14.5815 60.9598 15.4224C60.1217 16.2633 58.9851 16.7356 57.7999 16.7356H54.3402C53.7534 16.7356 53.1723 16.6197 52.6301 16.3944C52.0879 16.169 51.5953 15.8388 51.1803 15.4224C50.7654 15.0061 50.4362 14.5118 50.2116 13.9678C49.987 13.4238 49.8715 12.8408 49.8715 12.2519Z" fill="#7247FF"/>
<path d="M60.5409 12.3313C60.5409 14.8099 58.5384 16.8178 56.0701 16.8178C53.6018 16.8178 51.5994 14.8099 51.5994 12.3313C51.5994 9.85263 53.6018 7.84473 56.0701 7.84473C58.5384 7.84473 60.5409 9.85263 60.5409 12.3313Z" fill="#F4F7FA" stroke="black" stroke-width="0.5"/>
<path d="M30.0726 29.7921C30.1079 29.4169 30.2766 29.0674 30.5473 28.8072L30.5641 28.7912C30.7292 28.6349 30.9263 28.5168 31.1417 28.4452C31.357 28.3736 31.5853 28.3503 31.8106 28.3768C32.0358 28.4034 32.2526 28.4792 32.4456 28.5989C32.6386 28.7186 32.8032 28.8794 32.9276 29.07L33.0192 29.21L33.1836 29.1788L37.0371 28.4475L37.8881 30.3282L32.4755 31.2767L32.433 31.2841L32.3954 31.3054C32.0625 31.494 31.6723 31.5535 31.2987 31.4727C30.9251 31.3918 30.5938 31.1763 30.3678 30.8666C30.1417 30.5569 30.0366 30.1746 30.0726 29.7921Z" fill="#F4F7FA" stroke="black" stroke-width="0.5"/>
<mask id="path-21-inside-1" fill="white">
<path d="M52.3895 20.0507L52.4425 20.1312L45.8065 24.5174L34.609 28.105C34.4605 28.1528 34.3332 28.2508 34.2487 28.3822C34.1642 28.5137 34.1276 28.6705 34.1454 28.8259L34.3896 30.9369C34.4005 31.0303 34.4306 31.1205 34.4782 31.2015C34.5258 31.2826 34.5897 31.3527 34.6659 31.4075C34.7421 31.4623 34.8289 31.5006 34.9207 31.5198C35.0124 31.539 35.1072 31.5387 35.1989 31.519L45.7374 29.2525C46.2474 29.1435 46.7296 28.9304 47.1542 28.6266L54.6094 23.3046C54.8797 23.1107 55.0953 22.8498 55.2354 22.5474C55.3754 22.2451 55.4351 21.9115 55.4086 21.5791C55.3813 21.2463 55.2681 20.9264 55.0801 20.6508C54.8922 20.3752 54.6359 20.1535 54.3367 20.0074C54.0374 19.8613 53.7053 19.7958 53.3732 19.8175C53.0411 19.8393 52.7203 19.9473 52.4424 20.1312L52.3895 20.0507Z"/>
</mask>
<path d="M52.3895 20.0507L52.4425 20.1312L45.8065 24.5174L34.609 28.105C34.4605 28.1528 34.3332 28.2508 34.2487 28.3822C34.1642 28.5137 34.1276 28.6705 34.1454 28.8259L34.3896 30.9369C34.4005 31.0303 34.4306 31.1205 34.4782 31.2015C34.5258 31.2826 34.5897 31.3527 34.6659 31.4075C34.7421 31.4623 34.8289 31.5006 34.9207 31.5198C35.0124 31.539 35.1072 31.5387 35.1989 31.519L45.7374 29.2525C46.2474 29.1435 46.7296 28.9304 47.1542 28.6266L54.6094 23.3046C54.8797 23.1107 55.0953 22.8498 55.2354 22.5474C55.3754 22.2451 55.4351 21.9115 55.4086 21.5791C55.3813 21.2463 55.2681 20.9264 55.0801 20.6508C54.8922 20.3752 54.6359 20.1535 54.3367 20.0074C54.0374 19.8613 53.7053 19.7958 53.3732 19.8175C53.0411 19.8393 52.7203 19.9473 52.4424 20.1312L52.3895 20.0507Z" fill="#F4F7FA"/>
<path d="M52.3895 20.0507L52.8073 19.7759L51.9718 20.3254L52.3895 20.0507ZM52.4425 20.1312L52.7182 20.5483L53.1344 20.2732L52.8602 19.8564L52.4425 20.1312ZM45.8065 24.5174L45.959 24.9935L46.0247 24.9725L46.0822 24.9345L45.8065 24.5174ZM34.609 28.105L34.4564 27.6288L34.4555 27.6291L34.609 28.105ZM34.1454 28.8259L33.6486 28.8825L33.6487 28.8834L34.1454 28.8259ZM34.3896 30.9369L33.8929 30.9944L33.893 30.9945L34.3896 30.9369ZM35.1989 31.519L35.3039 32.0079L35.304 32.0078L35.1989 31.519ZM45.7374 29.2525L45.6328 28.7636L45.6322 28.7637L45.7374 29.2525ZM47.1542 28.6266L46.8637 28.2197L46.8632 28.22L47.1542 28.6266ZM54.6094 23.3046L54.8999 23.7116L54.9009 23.7108L54.6094 23.3046ZM55.4086 21.5791L55.9071 21.5395L55.907 21.5382L55.4086 21.5791ZM52.4424 20.1312L52.0247 20.4059L52.3002 20.8248L52.7183 20.5482L52.4424 20.1312ZM51.9718 20.3255L52.0247 20.4059L52.8602 19.8564L52.8073 19.7759L51.9718 20.3255ZM52.1668 19.714L45.5308 24.1002L46.0822 24.9345L52.7182 20.5483L52.1668 19.714ZM45.6539 24.0412L34.4564 27.6288L34.7615 28.5811L45.959 24.9935L45.6539 24.0412ZM34.4555 27.6291C34.1967 27.7125 33.9751 27.8833 33.8281 28.1118L34.6692 28.6527C34.6913 28.6183 34.7243 28.5931 34.7624 28.5808L34.4555 27.6291ZM33.8281 28.1118C33.6812 28.3403 33.6178 28.6127 33.6486 28.8825L34.6421 28.7692C34.6375 28.7283 34.6471 28.6871 34.6692 28.6527L33.8281 28.1118ZM33.6487 28.8834L33.8929 30.9944L34.8863 30.8794L34.642 28.7684L33.6487 28.8834ZM33.893 30.9945C33.9118 31.1569 33.9642 31.3136 34.047 31.4547L34.9094 30.9484C34.897 30.9273 34.8891 30.9038 34.8863 30.8793L33.893 30.9945ZM34.047 31.4547C34.1298 31.5957 34.2412 31.7179 34.374 31.8134L34.9579 31.0016C34.9383 30.9876 34.9218 30.9694 34.9094 30.9484L34.047 31.4547ZM34.374 31.8134C34.5068 31.909 34.6581 31.9757 34.8183 32.0092L35.023 31.0304C34.9997 31.0255 34.9775 31.0157 34.9579 31.0016L34.374 31.8134ZM34.8183 32.0092C34.9785 32.0427 35.1439 32.0422 35.3039 32.0079L35.0938 31.0302C35.0705 31.0352 35.0464 31.0352 35.023 31.0304L34.8183 32.0092ZM35.304 32.0078L45.8425 29.7413L45.6322 28.7637L35.0937 31.0302L35.304 32.0078ZM45.8419 29.7415C46.4191 29.618 46.9648 29.377 47.4451 29.0333L46.8632 28.22C46.4944 28.4839 46.0756 28.6689 45.6328 28.7636L45.8419 29.7415ZM47.4447 29.0336L54.8999 23.7116L54.3189 22.8977L46.8637 28.2197L47.4447 29.0336ZM54.9009 23.7108C55.2414 23.4665 55.5128 23.1381 55.6891 22.7576L54.7817 22.3373C54.6778 22.5615 54.5179 22.7548 54.3178 22.8984L54.9009 23.7108ZM55.6891 22.7576C55.8653 22.3771 55.9404 21.9575 55.9071 21.5395L54.9102 21.6188C54.9299 21.8655 54.8856 22.113 54.7817 22.3373L55.6891 22.7576ZM55.907 21.5382C55.8725 21.1192 55.73 20.7163 55.4932 20.3691L54.667 20.9325C54.8062 21.1365 54.8901 21.3735 54.9103 21.6201L55.907 21.5382ZM55.4932 20.3691C55.2564 20.0219 54.9334 19.7423 54.556 19.558L54.1173 20.4567C54.3384 20.5646 54.5279 20.7285 54.667 20.9325L55.4932 20.3691ZM54.556 19.558C54.1785 19.3738 53.7597 19.2912 53.3406 19.3186L53.4058 20.3165C53.651 20.3005 53.8962 20.3487 54.1173 20.4567L54.556 19.558ZM53.3406 19.3186C52.9215 19.346 52.5169 19.4824 52.1666 19.7142L52.7183 20.5482C52.9237 20.4123 53.1606 20.3325 53.4058 20.3165L53.3406 19.3186ZM52.8602 19.8564L52.8073 19.776L51.9718 20.3254L52.0247 20.4059L52.8602 19.8564Z" fill="black" mask="url(#path-21-inside-1)"/>
<path d="M52.1856 47.3287L52.1857 47.3287L52.1831 47.3227C52.1393 47.2218 52.0657 47.1366 51.972 47.0788C51.8783 47.0209 51.7692 46.9932 51.6592 46.9994C51.5492 47.0056 51.4439 47.0454 51.3573 47.1135C51.2718 47.1806 51.2087 47.272 51.1762 47.3756L42.9588 71.6857L42.9587 71.6857L42.9566 71.6925C42.9319 71.7731 42.891 71.8478 42.8365 71.9119C42.782 71.976 42.7151 72.0282 42.6398 72.0653C42.5646 72.1024 42.4826 72.1237 42.399 72.1278C42.3153 72.1319 42.2317 72.1188 42.1532 72.0893C42.1532 72.0893 42.1532 72.0893 42.1532 72.0893L39.3973 71.0524L39.3966 71.0521C39.2905 71.0126 39.1972 70.9442 39.1273 70.8545C39.0574 70.7648 39.0136 70.6573 39.0009 70.544L39.0008 70.5435C38.6956 67.8758 39.1316 64.1669 39.9716 60.0792C40.8102 55.9978 42.0463 51.5628 43.3258 47.4534C45.709 39.7992 48.2385 33.2884 48.618 32.3215L58.1877 34.4455C58.6374 34.9536 59.0935 35.8005 59.5459 36.9315C60.0067 38.0836 60.455 39.5077 60.8863 41.1198C61.7489 44.3437 62.539 48.3006 63.2263 52.2972C64.6006 60.2893 65.5599 68.4197 65.8638 71.1172L65.8639 71.1181C65.88 71.2568 65.8485 71.3969 65.7747 71.5152C65.7009 71.6334 65.5893 71.7228 65.4584 71.7687L65.4575 71.769L63.0249 72.6322L63.0248 72.6322C62.9598 72.6553 62.8914 72.6671 62.8225 72.6671C62.7025 72.6671 62.5851 72.6321 62.4846 72.5663C62.3849 72.501 62.3061 72.4082 62.2576 72.299L52.1856 47.3287Z" fill="#F4F7FA" stroke="black" stroke-width="0.5"/>
<path d="M49.5101 29.3407C49.9696 29.6817 49.1147 31.4981 48.4679 32.5629L48.4425 32.6049L49.5101 29.3407ZM49.5101 29.3407C48.605 28.6693 48.1658 27.5646 48.2048 26.0574C48.2894 22.7856 50.5113 19.8808 53.7337 18.829L49.5101 29.3407ZM50.889 34.3778C49.8881 34.0343 49.1067 33.4801 48.7226 32.6247C49.0419 32.0908 49.4038 31.39 49.6379 30.7685C49.7592 30.4461 49.8516 30.131 49.8806 29.8654C49.8951 29.7327 49.8953 29.5991 49.8675 29.4776C49.8392 29.3541 49.7779 29.2282 49.6591 29.14L49.6591 29.14C48.8403 28.5325 48.417 27.5198 48.4547 26.0639C48.5365 22.904 50.6831 20.0891 53.808 19.0678L53.8102 19.0671C54.7004 18.7812 55.6064 18.5472 56.5236 18.3661L56.5247 18.3659C57.164 18.2364 57.8238 18.2507 58.4569 18.4075C59.09 18.5644 59.6807 18.86 60.1865 19.2732L60.1871 19.2737C60.6996 19.6898 61.1139 20.2147 61.4002 20.8107C61.6865 21.4067 61.8378 22.059 61.843 22.7207L61.843 22.7212C61.8767 26.2057 61.3382 30.9975 58.6498 34.2692C58.5586 34.3788 58.4319 34.4526 58.2921 34.4777L58.2917 34.4778C56.9841 34.7151 55.6587 34.8395 54.33 34.8495C53.1489 34.8495 51.918 34.7308 50.889 34.3778Z" fill="#F4F7FA" stroke="black" stroke-width="0.5"/>
<path d="M53.6831 35.0371L53.6834 35.0358C53.7958 34.6314 54.0626 34.288 54.4257 34.0801C54.7883 33.8725 55.2178 33.8168 55.621 33.9248C55.7027 33.9478 55.7825 33.9775 55.8594 34.0135L56.0107 34.0844L56.134 33.9718L59.0613 31.2988L60.7684 32.4527L56.615 36.1405L56.5829 36.1689L56.5622 36.2065C56.3907 36.5167 56.1208 36.7603 55.7957 36.8986C55.4707 37.0369 55.1091 37.0623 54.7682 36.9707C54.5702 36.9162 54.3849 36.823 54.223 36.6962C54.0608 36.5694 53.9253 36.4115 53.8243 36.2317C53.7233 36.0518 53.6587 35.8537 53.6345 35.6486C53.6103 35.4435 53.6268 35.2357 53.6831 35.0371Z" fill="#F4F7FA" stroke="black" stroke-width="0.5"/>
<path d="M58.5515 34.7536H58.5513C58.4099 34.7537 58.2728 34.7046 58.1632 34.6146L58.1631 34.6145L56.9513 33.621C56.8795 33.5621 56.8218 33.4876 56.7826 33.403C56.7435 33.3185 56.7239 33.2261 56.7253 33.1328C56.7267 33.0395 56.7492 32.9477 56.7909 32.8644C56.8327 32.7811 56.8926 32.7085 56.9662 32.6518L56.9663 32.6518L62.0485 28.7409L62.0489 28.7406C62.1613 28.6537 62.2347 28.526 62.2537 28.3855C62.2726 28.2449 62.2356 28.1024 62.1505 27.9888L62.1501 27.9883L59.0133 23.8274L59.013 23.8271C58.6841 23.3923 58.5191 22.8547 58.5473 22.3093C58.5755 21.764 58.795 21.2464 59.1669 20.8481L59.1679 20.847C59.5595 20.4227 60.0955 20.1618 60.6696 20.1157C61.2363 20.0703 61.7994 20.2374 62.2502 20.5845L65.5125 25.2713L65.5338 25.3019L65.5631 25.325C65.887 25.5798 66.1479 25.9063 66.3253 26.2791C66.5027 26.652 66.5919 27.0609 66.5857 27.4741C66.5796 27.8872 66.4784 28.2934 66.29 28.6607C66.1016 29.028 65.8311 29.3466 65.4998 29.5916L65.4998 29.5916L65.4965 29.5942L58.916 34.6337C58.8102 34.7116 58.6825 34.7536 58.5515 34.7536Z" fill="#F4F7FA" stroke="black" stroke-width="0.5"/>
<path d="M51.8884 10.9985V8.64846L56.0699 6.81641L60.0571 8.64846V10.9985C60.0571 11.1008 60.0166 11.1989 59.9445 11.2713C59.8724 11.3436 59.7747 11.3842 59.6727 11.3842H52.2728C52.1709 11.3842 52.0731 11.3436 52.001 11.2713C51.9289 11.1989 51.8884 11.1008 51.8884 10.9985Z" fill="#7247FF"/>
<path d="M55.878 5.38037C55.2632 3.4059 56.5545 1.14306 58.4633 0.361514C60.3722 -0.420034 62.656 0.126292 64.2667 1.41753C65.8774 2.70876 66.8767 4.64279 67.4063 6.64199C67.9358 8.6412 68.0363 10.7259 68.134 12.7922C70.4794 13.2244 72.0748 16.0155 71.2623 18.2649C70.4498 20.5142 67.4427 21.6317 65.3659 20.4561C63.2891 19.2804 62.6876 16.1199 64.1865 14.2591C64.8957 13.3787 65.2919 12.2859 65.3122 11.154C65.3326 10.0221 64.976 8.91574 64.299 8.01012C63.6219 7.10451 62.6631 6.45142 61.5743 6.15431C60.4856 5.85719 59.3291 5.93303 58.2882 6.3698C57.1323 6.8548 55.682 5.59468 55.878 5.38037Z" fill="#7247FF"/>
<path d="M29.5252 19.4935C26.7172 19.475 23.9443 18.8656 21.3857 17.7048C21.2334 17.6367 21.1041 17.5256 21.0136 17.3851C20.9231 17.2446 20.8753 17.0807 20.876 16.9134V9.89028C20.8762 9.66019 20.9674 9.43961 21.1296 9.27692C21.2917 9.11423 21.5116 9.02272 21.7409 9.02246H37.3095C37.5388 9.02272 37.7586 9.11423 37.9208 9.27692C38.0829 9.43961 38.1741 9.6602 38.1744 9.89028V16.9134C38.1751 17.0807 38.1273 17.2446 38.0368 17.3851C37.9463 17.5257 37.817 17.6367 37.6647 17.7048C35.106 18.8657 32.3332 19.475 29.5252 19.4935Z" fill="url(#paint1_linear)"/>
<path d="M29.5232 13.8042C29.4078 13.8043 29.2935 13.7813 29.1871 13.7364L16.8414 8.51036C16.6822 8.44297 16.5468 8.32928 16.4526 8.18394C16.3584 8.0386 16.3097 7.86828 16.3129 7.69494C16.3161 7.5216 16.3709 7.35318 16.4704 7.2114C16.5698 7.06963 16.7093 6.96099 16.8709 6.8995L29.2167 2.20024C29.4155 2.12421 29.6354 2.12468 29.8339 2.20156L42.0143 6.90081C42.1749 6.96279 42.3135 7.07146 42.4122 7.2129C42.511 7.35433 42.5654 7.52212 42.5686 7.69478C42.5718 7.86744 42.5236 8.03712 42.4301 8.18212C42.3366 8.32713 42.2022 8.44085 42.0439 8.50875L29.8634 13.7348C29.7558 13.7807 29.6401 13.8044 29.5232 13.8042Z" fill="url(#paint2_linear)"/>
<path d="M22.3177 18.1823C22.9546 18.1823 23.4709 17.6643 23.4709 17.0253C23.4709 16.3862 22.9546 15.8682 22.3177 15.8682C21.6807 15.8682 21.1644 16.3862 21.1644 17.0253C21.1644 17.6643 21.6807 18.1823 22.3177 18.1823Z" fill="#3F3D56"/>
<path opacity="0.2" d="M42.086 7.76701L29.9054 12.993C29.8104 13.0338 29.7083 13.0549 29.605 13.0551C29.5017 13.0554 29.3994 13.0348 29.3043 12.9945L16.9586 7.76854C16.8036 7.70448 16.6742 7.5904 16.591 7.44435C16.5366 7.53906 16.5028 7.64431 16.4921 7.7531C16.4813 7.8619 16.4937 7.97175 16.5284 8.07537C16.5632 8.17899 16.6195 8.274 16.6937 8.35409C16.7679 8.43419 16.8582 8.49754 16.9586 8.53993L29.3043 13.7659C29.3994 13.8062 29.5017 13.8268 29.605 13.8265C29.7083 13.8263 29.8104 13.8052 29.9054 13.7644L42.086 8.5384C42.1859 8.49563 42.2757 8.43209 42.3493 8.35196C42.423 8.27182 42.4788 8.17693 42.5132 8.07353C42.5477 7.97014 42.5598 7.8606 42.5489 7.75214C42.5381 7.64368 42.5044 7.53877 42.4501 7.44434C42.3675 7.58922 42.2395 7.70266 42.086 7.76701Z" fill="black"/>
<path d="M22.4146 17.0214C22.4656 17.0214 22.5145 17.0011 22.5505 16.965C22.5866 16.9288 22.6068 16.8797 22.6068 16.8286V10.3756L28.9459 8.05855C28.9969 8.05931 29.0461 8.03972 29.0827 8.00409C29.1193 7.96847 29.1403 7.91972 29.141 7.86857C29.1418 7.81742 29.1223 7.76807 29.0867 7.73137C29.0512 7.69466 29.0026 7.67361 28.9517 7.67285L22.6125 9.98994C22.5615 9.98877 22.5108 9.99799 22.4635 10.0171C22.4161 10.0361 22.3731 10.0646 22.3371 10.1009C22.3006 10.1367 22.2717 10.1794 22.252 10.2266C22.2323 10.2738 22.2223 10.3245 22.2224 10.3756V16.8286C22.2224 16.8797 22.2427 16.9288 22.2787 16.965C22.3148 17.0011 22.3636 17.0214 22.4146 17.0214Z" fill="#3F3D56"/>
</g>
<defs>
<linearGradient id="paint0_linear" x1="13.822" y1="78.6814" x2="95.524" y2="80.3818" gradientUnits="userSpaceOnUse">
<stop stop-color="#4614E8"/>
<stop offset="1" stop-color="#BCA7FF"/>
</linearGradient>
<linearGradient id="paint1_linear" x1="20.7827" y1="9.53559" x2="38.8106" y2="9.74442" gradientUnits="userSpaceOnUse">
<stop stop-color="#4614E8"/>
<stop offset="1" stop-color="#BCA7FF"/>
</linearGradient>
<linearGradient id="paint2_linear" x1="16.1711" y1="2.71498" x2="43.5313" y2="3.14695" gradientUnits="userSpaceOnUse">
<stop stop-color="#4614E8"/>
<stop offset="1" stop-color="#BCA7FF"/>
</linearGradient>
<clipPath id="clip0">
<rect width="143" height="104" fill="white"/>
</clipPath>
</defs>
</svg>
