<svg width="136" height="75" viewBox="0 0 136 75" fill="none" xmlns="http://www.w3.org/2000/svg">
<g clip-path="url(#clip0)">
<path d="M84.1057 28.9549L84.122 28.9304L84.1321 28.9027L87.3711 20.0342L90.131 20.5301L86.9816 31.0877L80.1103 39.1245L80.0455 39.2003L80.0507 39.2999C80.0691 39.6545 79.9828 40.0064 79.8033 40.3106L80.0186 40.4376L79.8033 40.3106C79.6238 40.6147 79.3594 40.8571 79.0443 41.0073C78.7292 41.1575 78.3774 41.2089 78.0337 41.1552C77.69 41.1014 77.3694 40.9449 77.113 40.7051C76.8565 40.4652 76.676 40.1528 76.5949 39.8074C76.5138 39.4621 76.5361 39.1001 76.6587 38.7678C76.7813 38.4355 76.9986 38.1484 77.2821 37.9428C77.5657 37.7372 77.9027 37.6223 78.2503 37.6123L78.38 37.6086L78.4516 37.5004L84.1057 28.9549Z" fill="white" stroke="black" stroke-width="0.5"/>
<path d="M101.547 9.03749C101.547 12.2971 98.5759 11.8041 94.9111 11.8041C91.2463 11.8041 88.2754 12.2971 88.2754 9.03749C88.2754 5.77788 89.7266 0 94.9111 0C100.274 0 101.547 5.77789 101.547 9.03749Z" fill="#7247FF"/>
<path d="M113.53 37.5219L113.56 37.574L113.61 37.6069C113.899 37.7959 114.127 38.0674 114.265 38.3881C114.404 38.7088 114.446 39.064 114.387 39.4091C114.327 39.7542 114.169 40.0734 113.932 40.327C113.695 40.5805 113.39 40.757 113.055 40.8352C112.721 40.9133 112.371 40.8897 112.05 40.7672C111.728 40.6447 111.449 40.4285 111.247 40.1451C111.045 39.8617 110.93 39.5238 110.916 39.1736C110.902 38.8235 110.991 38.4772 111.17 38.1782L111.256 38.0342L111.155 37.8999L104.668 29.2402L102.197 18.4985L104.983 18.1845L107.651 27.2472L107.659 27.2754L107.673 27.3009L113.53 37.5219Z" fill="white" stroke="black" stroke-width="0.5"/>
<path d="M114.838 72.0497L108.276 53.8761L112.494 53.2825L117.111 72.0497H114.838Z" fill="white" stroke="black" stroke-width="0.5"/>
<path d="M88.6524 54.2971L92.8709 54.8908L86.3085 73.0644H84.0357L88.6524 54.2971Z" fill="white" stroke="black" stroke-width="0.5"/>
<path d="M100.143 14.4508L100.172 14.448L100.199 14.4388L100.199 14.4388L100.199 14.4387L100.199 14.4387L100.2 14.4384L100.205 14.4368L100.226 14.43C100.245 14.424 100.273 14.4152 100.309 14.4044C100.382 14.3826 100.487 14.3527 100.617 14.3206C100.876 14.2563 101.226 14.1843 101.596 14.1512C101.968 14.1179 102.344 14.1255 102.662 14.2101C102.978 14.2939 103.216 14.447 103.355 14.6935C103.713 15.3287 104.345 16.6562 104.892 17.8345C105.164 18.4216 105.414 18.9685 105.595 19.3686C105.657 19.5048 105.711 19.6239 105.755 19.7219L102.445 20.2257L102.135 20.2728L102.25 20.5645L105.522 28.8642L105.547 28.9284L105.602 28.9704L105.602 28.9704L105.602 28.9705L105.602 28.9706L105.604 28.9719L105.612 28.9784C105.62 28.9845 105.631 28.994 105.647 29.0069C105.679 29.0328 105.726 29.0725 105.787 29.1262C105.909 29.2337 106.086 29.3974 106.303 29.6189C106.737 30.0621 107.33 30.7367 107.957 31.6569C109.211 33.4965 110.603 36.3193 111.143 40.2418C111.688 44.2092 112.234 47.8074 112.643 50.4137C112.848 51.7169 113.019 52.7722 113.138 53.5017C113.198 53.8665 113.244 54.1499 113.276 54.3421L113.284 54.3875C113.146 54.4098 112.951 54.4409 112.707 54.4792C112.176 54.5622 111.41 54.6795 110.468 54.8163C108.584 55.0898 105.996 55.4409 103.182 55.7518C97.6641 56.3613 91.3186 56.8101 87.6794 56.2329C87.696 56.1376 87.718 56.0177 87.7459 55.8797C87.8186 55.5193 87.9301 55.039 88.0854 54.5551C88.2416 54.0685 88.4379 53.5915 88.6756 53.2298C88.9179 52.8611 89.1704 52.6609 89.4241 52.6287L89.9255 52.5651L89.5707 52.2052C89.3308 51.9618 89.2491 51.7496 89.2359 51.5776C89.2224 51.4023 89.2775 51.235 89.3708 51.0806C89.4646 50.9254 89.5904 50.7946 89.6969 50.7008C89.7494 50.6545 89.7955 50.6187 89.8278 50.5949C89.8438 50.5831 89.8564 50.5743 89.8645 50.5688L89.873 50.563L89.8741 50.5623L89.8743 50.5622L89.8744 50.5621L89.8746 50.562L89.8746 50.562L89.9548 50.5105L89.9802 50.418L93.2698 38.4295L93.2746 38.412L93.2768 38.3939L94.004 32.4919L94.0091 32.4506L94.0006 32.41L93.7559 32.4613C94.0006 32.41 94.0005 32.4099 94.0005 32.4099L94.0005 32.4096L94.0003 32.4087L93.9995 32.4052L93.9967 32.3918L93.9855 32.3401C93.9757 32.295 93.9612 32.2289 93.9421 32.1446C93.9039 31.9759 93.8477 31.734 93.775 31.4402C93.6298 30.853 93.4188 30.057 93.1557 29.2237C92.8931 28.3915 92.5767 27.5161 92.2198 26.7724C91.8683 26.0399 91.4583 25.3933 90.9911 25.0639C90.269 24.5548 90.0018 23.5532 89.9352 22.6033C89.9026 22.1383 89.9196 21.7066 89.945 21.3905C89.9576 21.2328 89.9723 21.1047 89.9837 21.0165C89.9894 20.9725 89.9943 20.9385 89.9977 20.9158L90.0016 20.8905L90.0026 20.8846L90.0028 20.8834L90.0028 20.8833L90.0028 20.8832L90.0028 20.8832L90.0549 20.5745L89.7422 20.5921L86.7545 20.7605C86.7676 20.6031 86.7872 20.3869 86.8148 20.1307C86.874 19.5817 86.9696 18.852 87.1153 18.1242C87.2618 17.3928 87.4558 16.6791 87.7066 16.154C87.832 15.8912 87.9651 15.6899 88.102 15.5572C88.2362 15.4272 88.3616 15.3741 88.4837 15.3741H90.4835H90.4954L90.5073 15.373L100.143 14.4508Z" fill="white" stroke="black" stroke-width="0.5"/>
<path d="M117.521 74.4645L117.521 72.0343L113.382 72.0342H113.382H113.381L117.521 74.4645ZM117.521 74.4645L110.839 74.4642C110.877 73.8344 111.14 73.2387 111.582 72.7909C112.06 72.306 112.707 72.0342 113.381 72.0342L117.521 74.4645Z" fill="white" stroke="black" stroke-width="0.5"/>
<path d="M86.9783 74.4645L86.9784 72.0343L82.8391 72.0342H82.8391H82.8389L86.9783 74.4645ZM86.9783 74.4645L80.2964 74.4642C80.3343 73.8344 80.5976 73.2387 81.039 72.7909C81.517 72.306 82.1645 72.0342 82.8389 72.0342L86.9783 74.4645Z" fill="white" stroke="black" stroke-width="0.5"/>
<path d="M99.4182 6.93869C99.4182 9.30588 97.5276 11.2187 95.203 11.2187C92.8784 11.2187 90.9878 9.30588 90.9878 6.93869C90.9878 4.57151 92.8784 2.65869 95.203 2.65869C97.5276 2.65869 99.4182 4.5715 99.4182 6.93869Z" fill="white" stroke="black" stroke-width="0.5"/>
<path d="M89.7299 6.82421H91.4959L92.2751 4.61095L92.4309 6.82421H93.275L93.7295 5.53314L93.8204 6.82421H100.092C100.092 5.55239 99.5945 4.33266 98.708 3.43335C97.8216 2.53404 96.6193 2.02881 95.3657 2.02881H94.4567C93.203 2.02881 92.0008 2.53404 91.1143 3.43335C90.2279 4.33266 89.7299 5.55239 89.7299 6.82421Z" fill="#7247FF"/>
<path d="M135.818 74.9997H66.5524C66.5042 74.9997 66.458 74.9803 66.4239 74.9457C66.3898 74.9111 66.3706 74.8642 66.3706 74.8153C66.3706 74.7664 66.3898 74.7195 66.4239 74.6849C66.458 74.6503 66.5042 74.6309 66.5524 74.6309H135.818C135.866 74.6309 135.913 74.6503 135.947 74.6849C135.981 74.7195 136 74.7664 136 74.8153C136 74.8642 135.981 74.9111 135.947 74.9457C135.913 74.9803 135.866 74.9997 135.818 74.9997Z" fill="#CBCBCB"/>
<path d="M78.2198 6.2876H0V39.6103H78.2198V6.2876Z" fill="#CBCBCB"/>
<path d="M1.63623 37.9506H76.5836V7.94775H1.63623V37.9506Z" fill="white"/>
<path d="M65.0341 18.7424V31.5365C65.0337 31.705 64.9676 31.8666 64.8501 31.9858C64.7326 32.105 64.5734 32.1721 64.4072 32.1724H50.8374C50.6713 32.1721 50.5121 32.105 50.3946 31.9858C50.2771 31.8666 50.2109 31.705 50.2106 31.5365V18.7424C50.2107 18.5738 50.2768 18.4121 50.3943 18.2928C50.5118 18.1736 50.6712 18.1066 50.8374 18.1064H64.4072C64.5734 18.1066 64.7328 18.1736 64.8504 18.2928C64.9679 18.4121 65.034 18.5738 65.0341 18.7424Z" fill="#6C63FF"/>
<path d="M65.0341 18.7424V31.5365C65.0337 31.705 64.9676 31.8666 64.8501 31.9858C64.7326 32.105 64.5734 32.1721 64.4072 32.1724H50.8374C50.6713 32.1721 50.5121 32.105 50.3946 31.9858C50.2771 31.8666 50.2109 31.705 50.2106 31.5365V18.7424C50.2107 18.5738 50.2768 18.4121 50.3943 18.2928C50.5118 18.1736 50.6712 18.1066 50.8374 18.1064H64.4072C64.5734 18.1066 64.7328 18.1736 64.8504 18.2928C64.9679 18.4121 65.034 18.5738 65.0341 18.7424Z" fill="url(#paint0_linear)"/>
<path d="M58.5808 32.2368H56.6634C56.4993 32.2388 56.3412 32.1747 56.2237 32.0585C56.1062 31.9424 56.0389 31.7837 56.0365 31.6173V18.3457C56.0389 18.1792 56.1062 18.0206 56.2237 17.9044C56.3412 17.7883 56.4993 17.7242 56.6634 17.7261H58.5808C58.7449 17.7242 58.903 17.7883 59.0205 17.9044C59.138 18.0206 59.2053 18.1792 59.2077 18.3457V31.6173C59.2053 31.7837 59.138 31.9424 59.0205 32.0585C58.903 32.1746 58.7449 32.2388 58.5808 32.2368Z" fill="#3F3D56"/>
<path d="M57.2273 14.1018C58.2128 14.9672 57.9016 16.9699 57.9016 16.9699C57.9016 16.9699 55.9927 17.5695 55.0072 16.7041C54.0217 15.8388 54.3329 13.8361 54.3329 13.8361C54.3329 13.8361 56.2418 13.2365 57.2273 14.1018Z" fill="#3F3D56"/>
<path d="M60.5006 16.538C59.6507 17.5405 57.6758 17.2311 57.6758 17.2311C57.6758 17.2311 57.0788 15.2963 57.9287 14.2938C58.7786 13.2913 60.7535 13.6007 60.7535 13.6007C60.7535 13.6007 61.3505 15.5356 60.5006 16.538Z" fill="#3F3D56"/>
<path opacity="0.2" d="M65.0341 18.7424V20.8965L50.2106 20.8329V18.7424C50.2107 18.5738 50.2768 18.4121 50.3943 18.2928C50.5118 18.1736 50.6712 18.1066 50.8374 18.1064H64.4072C64.5734 18.1066 64.7328 18.1736 64.8504 18.2928C64.9679 18.4121 65.034 18.5738 65.0341 18.7424Z" fill="black"/>
<path d="M66.63 20.052C66.5713 20.1302 66.4955 20.1936 66.4086 20.237C66.3217 20.2805 66.226 20.3029 66.1291 20.3025L49.6095 20.2322C49.5272 20.2318 49.4457 20.215 49.3698 20.1828C49.2939 20.1505 49.225 20.1033 49.167 20.044C49.109 19.9847 49.0631 19.9144 49.0319 19.8371C49.0008 19.7598 48.9849 19.6771 48.9852 19.5936L48.993 17.7231C48.9937 17.5544 49.0603 17.393 49.1784 17.2742C49.2964 17.1555 49.4561 17.0892 49.6223 17.0898H49.6225L66.142 17.1601C66.2243 17.1605 66.3058 17.1772 66.3817 17.2095C66.4576 17.2418 66.5265 17.2889 66.5845 17.3482C66.6425 17.4075 66.6884 17.4779 66.7196 17.5551C66.7507 17.6324 66.7666 17.7152 66.7663 17.7987L66.7585 19.6692C66.7581 19.8076 66.713 19.9421 66.63 20.052Z" fill="#6C63FF"/>
<path d="M66.63 20.052C66.5713 20.1302 66.4955 20.1936 66.4086 20.237C66.3217 20.2805 66.226 20.3029 66.1291 20.3025L49.6095 20.2322C49.5272 20.2318 49.4457 20.215 49.3698 20.1828C49.2939 20.1505 49.225 20.1033 49.167 20.044C49.109 19.9847 49.0631 19.9144 49.0319 19.8371C49.0008 19.7598 48.9849 19.6771 48.9852 19.5936L48.993 17.7231C48.9937 17.5544 49.0603 17.393 49.1784 17.2742C49.2964 17.1555 49.4561 17.0892 49.6223 17.0898H49.6225L66.142 17.1601C66.2243 17.1605 66.3058 17.1772 66.3817 17.2095C66.4576 17.2418 66.5265 17.2889 66.5845 17.3482C66.6425 17.4075 66.6884 17.4779 66.7196 17.5551C66.7507 17.6324 66.7666 17.7152 66.7663 17.7987L66.7585 19.6692C66.7581 19.8076 66.713 19.9421 66.63 20.052Z" fill="url(#paint1_linear)"/>
<path d="M56.0762 16.9676L56.0629 20.3345L59.234 20.3474L59.2473 16.9805L56.0762 16.9676Z" fill="#3F3D56"/>
<path d="M29.8803 17.9209H11.5426V19.4062H29.8803V17.9209Z" fill="#E5E5E5"/>
<path d="M39.86 23.3389H11.5426V24.8241H39.86V23.3389Z" fill="url(#paint2_linear)"/>
<path d="M34.6206 28.4429H11.5426V29.9282H34.6206V28.4429Z" fill="#E5E5E5"/>
<path d="M22.9491 64.2826C23.6623 64.5369 24.4281 64.6006 25.1727 64.4676C25.9172 64.3345 26.6154 64.0092 27.2001 63.5229C28.689 62.255 29.1559 60.1669 29.5356 58.2328L30.6591 52.5122L28.307 54.1552C26.6154 55.3368 24.8858 56.5564 23.7147 58.2678C22.5436 59.9793 22.0327 62.3157 22.9733 64.1677" fill="#E6E6E6"/>
<path d="M23.3124 71.6068C23.0164 69.4187 22.7118 67.2022 22.9199 64.9907C23.1044 63.0265 23.6951 61.1084 24.8976 59.5351C25.5359 58.7017 26.3126 57.9876 27.1928 57.425C27.4222 57.2781 27.6335 57.647 27.405 57.7934C25.882 58.7698 24.704 60.2116 24.0409 61.9111C23.3085 63.8008 23.1909 65.861 23.317 67.8685C23.3933 69.0825 23.5553 70.2885 23.7181 71.4931C23.7309 71.5476 23.7229 71.605 23.6956 71.6537C23.6683 71.7024 23.6239 71.7388 23.5712 71.7555C23.5174 71.7702 23.4601 71.7628 23.4117 71.7349C23.3633 71.707 23.3276 71.6609 23.3125 71.6065L23.3124 71.6068Z" fill="#F2F2F2"/>
<path d="M25.4431 68.0953C25.749 68.5671 26.1694 68.951 26.664 69.21C27.1585 69.469 27.7105 69.5945 28.2667 69.5743C29.6965 69.5054 30.8879 68.4935 31.9604 67.5325L35.1332 64.6905L33.0334 64.5885C31.5233 64.5152 29.9743 64.4463 28.536 64.9193C27.0977 65.3923 25.7713 66.5288 25.5083 68.0392" fill="#E6E6E6"/>
<path d="M22.4754 72.8644C23.9007 70.306 25.5537 67.4626 28.5077 66.5538C29.329 66.3019 30.1901 66.2117 31.0448 66.288C31.3142 66.3116 31.2469 66.7328 30.9781 66.7093C29.5454 66.5887 28.1155 66.9724 26.9291 67.7961C25.7874 68.5845 24.8984 69.6806 24.1461 70.8428C23.6852 71.5549 23.2724 72.297 22.8596 73.0382C22.7277 73.2751 22.342 73.104 22.4754 72.8644Z" fill="#F2F2F2"/>
<path d="M38.0097 73.3401H13.2849C13.2367 73.3401 13.1905 73.3206 13.1564 73.2861C13.1223 73.2515 13.1031 73.2045 13.1031 73.1556C13.1031 73.1067 13.1223 73.0598 13.1564 73.0252C13.1905 72.9906 13.2367 72.9712 13.2849 72.9712H38.0097C38.058 72.9712 38.1042 72.9906 38.1383 73.0252C38.1724 73.0598 38.1915 73.1067 38.1915 73.1556C38.1915 73.2045 38.1724 73.2515 38.1383 73.2861C38.1042 73.3206 38.058 73.3401 38.0097 73.3401Z" fill="#CBCBCB"/>
</g>
<defs>
<linearGradient id="paint0_linear" x1="50.1306" y1="18.7957" x2="65.5805" y2="18.9099" gradientUnits="userSpaceOnUse">
<stop stop-color="#4614E8"/>
<stop offset="1" stop-color="#BCA7FF"/>
</linearGradient>
<linearGradient id="paint1_linear" x1="48.8893" y1="17.2473" x2="67.3948" y2="17.9655" gradientUnits="userSpaceOnUse">
<stop stop-color="#4614E8"/>
<stop offset="1" stop-color="#BCA7FF"/>
</linearGradient>
<linearGradient id="paint2_linear" x1="11.3899" y1="23.4117" x2="40.3872" y2="27.2881" gradientUnits="userSpaceOnUse">
<stop stop-color="#4614E8"/>
<stop offset="1" stop-color="#BCA7FF"/>
</linearGradient>
<clipPath id="clip0">
<rect width="136" height="75" fill="white"/>
</clipPath>
</defs>
</svg>
