<svg width="169" height="43" viewBox="0 0 169 43" fill="none" xmlns="http://www.w3.org/2000/svg">
<path d="M20.806 37.746H31.7254V41H17.4858V0H20.806V37.746Z" fill="#3B1D8F"/>
<path d="M3.32011 0H0V41H3.32011V0Z" fill="#3B1D8F"/>
<path d="M37.628 20.5362C37.628 30.0088 45.5225 37.746 55.1877 37.746V41C43.6042 41 34.2341 31.8166 34.2341 20.5362C34.3079 9.18342 43.678 0 55.2615 0V3.25397C45.5225 3.25397 37.628 10.9912 37.628 20.5362Z" fill="#3B1D8F"/>
<path d="M57.6223 20.4638C57.6223 21.7654 56.5894 22.7778 55.2614 22.7778C53.9333 22.7778 52.9004 21.7654 52.9004 20.4638C52.9004 19.1622 53.9333 18.1499 55.2614 18.1499C56.5156 18.1499 57.6223 19.2346 57.6223 20.4638Z" fill="#3B1D8F"/>
<path d="M80.61 16.12C79.7167 16.12 78.9667 15.83 78.36 15.25C77.7533 14.67 77.3933 13.93 77.28 13.03H76.13V16H74.9V9H76.13V11.93H77.29C77.41 11.05 77.7733 10.3233 78.38 9.75C78.9933 9.17 79.7433 8.88 80.63 8.88C81.61 8.88 82.4133 9.22667 83.04 9.92C83.6733 10.6133 83.99 11.4733 83.99 12.5C83.99 13.52 83.6733 14.38 83.04 15.08C82.4067 15.7733 81.5967 16.12 80.61 16.12ZM79.11 14.29C79.51 14.77 80.0167 15.01 80.63 15.01C81.2433 15.01 81.7467 14.7733 82.14 14.3C82.5333 13.82 82.73 13.22 82.73 12.5C82.73 11.7933 82.53 11.2 82.13 10.72C81.73 10.24 81.2233 10 80.61 10C79.9967 10 79.4933 10.2367 79.1 10.71C78.7133 11.1833 78.52 11.78 78.52 12.5C78.52 13.2067 78.7167 13.8033 79.11 14.29ZM86.4762 16V9H89.2362C90.0495 9 90.6962 9.21333 91.1762 9.64C91.6562 10.0667 91.8962 10.64 91.8962 11.36C91.8962 12.1133 91.6295 12.7 91.0962 13.12C90.5695 13.54 89.9028 13.75 89.0962 13.75H87.7062V16H86.4762ZM87.7062 12.64H89.1362C89.5962 12.64 89.9628 12.5233 90.2362 12.29C90.5095 12.0567 90.6462 11.75 90.6462 11.37C90.6462 10.97 90.5095 10.6633 90.2362 10.45C89.9695 10.23 89.6028 10.12 89.1362 10.12H87.7062V12.64ZM94.1559 16V9H95.3659V14.11L98.9059 9H100.056V16H98.8459V10.9L95.3159 16H94.1559ZM102.071 17.5V14.9H102.751C103.344 13.7267 103.641 12.09 103.641 9.99V9H108.521V14.9H109.391L109.221 17.5H108.201V16H103.271L103.151 17.5H102.071ZM104.061 14.9H107.291V10.11H104.821V10.91C104.821 12.5433 104.567 13.8733 104.061 14.9ZM111.488 16V9H112.698V14.11L116.238 9H117.388V16H116.178V10.9L112.648 16H111.488ZM124.313 16V13.23C123.559 13.6233 122.896 13.82 122.323 13.82C121.616 13.82 121.053 13.6333 120.633 13.26C120.219 12.88 120.013 12.3233 120.013 11.59V9H121.243V11.28C121.243 11.7267 121.353 12.0733 121.573 12.32C121.793 12.56 122.116 12.68 122.543 12.68C123.176 12.68 123.766 12.4967 124.313 12.13V9H125.543V16H124.313ZM128.341 16V9H133.531V10.1H129.571V11.92H133.081V13.02H129.571V14.9H133.581V16H128.341ZM139.291 16.12C138.277 16.12 137.431 15.7733 136.751 15.08C136.071 14.38 135.731 13.52 135.731 12.5C135.731 11.4867 136.071 10.63 136.751 9.93C137.431 9.23 138.294 8.88 139.341 8.88C139.947 8.88 140.461 8.97333 140.881 9.16C141.307 9.34667 141.707 9.61667 142.081 9.97L141.291 10.88C140.664 10.3 140.011 10.01 139.331 10.01C138.664 10.01 138.111 10.25 137.671 10.73C137.237 11.21 137.021 11.8 137.021 12.5C137.021 13.1933 137.241 13.7833 137.681 14.27C138.121 14.75 138.671 14.99 139.331 14.99C139.731 14.99 140.084 14.9167 140.391 14.77C140.697 14.6167 141.014 14.3867 141.341 14.08L142.131 14.88C141.737 15.2933 141.321 15.6033 140.881 15.81C140.441 16.0167 139.911 16.12 139.291 16.12ZM144.423 16V9H145.653V12.52L148.983 9H150.493L147.583 12.01L150.623 16H149.133L146.743 12.85L145.653 13.97V16H144.423ZM152.67 16V9H153.88V14.11L157.42 9H158.57V16H157.36V10.9L153.83 16H152.67ZM165.424 8.08C165.144 8.32667 164.794 8.45 164.374 8.45C163.954 8.45 163.604 8.32667 163.324 8.08C163.044 7.82667 162.868 7.48333 162.794 7.05L163.544 6.91C163.671 7.36333 163.948 7.59 164.374 7.59C164.788 7.59 165.064 7.36333 165.204 6.91L165.944 7.05C165.878 7.48333 165.704 7.82667 165.424 8.08ZM161.384 16V9H162.594V14.11L166.134 9H167.284V16H166.074V10.9L162.544 16H161.384ZM74.9 36V29H80.61V36H79.38V30.11H76.13V36H74.9ZM89.3798 35.06C88.6864 35.7667 87.8098 36.12 86.7498 36.12C85.6898 36.12 84.8164 35.77 84.1298 35.07C83.4431 34.37 83.0998 33.5133 83.0998 32.5C83.0998 31.5 83.4464 30.6467 84.1398 29.94C84.8331 29.2333 85.7098 28.88 86.7698 28.88C87.8298 28.88 88.7031 29.23 89.3898 29.93C90.0764 30.63 90.4198 31.4867 90.4198 32.5C90.4198 33.5 90.0731 34.3533 89.3798 35.06ZM85.0598 34.27C85.5131 34.75 86.0831 34.99 86.7698 34.99C87.4564 34.99 88.0198 34.75 88.4598 34.27C88.9064 33.79 89.1298 33.2 89.1298 32.5C89.1298 31.8067 88.9031 31.22 88.4498 30.74C88.0031 30.2533 87.4364 30.01 86.7498 30.01C86.0631 30.01 85.4964 30.25 85.0498 30.73C84.6098 31.21 84.3898 31.8 84.3898 32.5C84.3898 33.1933 84.6131 33.7833 85.0598 34.27ZM92.9059 36.08C92.6192 36.08 92.3359 36.0433 92.0559 35.97L92.1759 34.96C92.2959 35 92.4292 35.02 92.5759 35.02C92.7359 35.02 92.8725 34.9967 92.9859 34.95C93.1059 34.8967 93.2292 34.7767 93.3559 34.59C93.4892 34.4033 93.5925 34.15 93.6659 33.83C93.7459 33.5033 93.8125 33.05 93.8659 32.47C93.9192 31.89 93.9459 31.1933 93.9459 30.38V29H98.7459V36H97.5159V30.11H95.0959V30.74C95.0959 31.8267 95.0492 32.73 94.9559 33.45C94.8625 34.1633 94.7159 34.71 94.5159 35.09C94.3159 35.4633 94.0892 35.7233 93.8359 35.87C93.5892 36.01 93.2792 36.08 92.9059 36.08ZM101.552 36V29H102.762V34.11L106.302 29H107.452V36H106.242V30.9L102.712 36H101.552ZM113.517 36.12C112.504 36.12 111.657 35.7733 110.977 35.08C110.297 34.38 109.957 33.52 109.957 32.5C109.957 31.4867 110.297 30.63 110.977 29.93C111.657 29.23 112.521 28.88 113.567 28.88C114.174 28.88 114.687 28.9733 115.107 29.16C115.534 29.3467 115.934 29.6167 116.307 29.97L115.517 30.88C114.891 30.3 114.237 30.01 113.557 30.01C112.891 30.01 112.337 30.25 111.897 30.73C111.464 31.21 111.247 31.8 111.247 32.5C111.247 33.1933 111.467 33.7833 111.907 34.27C112.347 34.75 112.897 34.99 113.557 34.99C113.957 34.99 114.311 34.9167 114.617 34.77C114.924 34.6167 115.241 34.3867 115.567 34.08L116.357 34.88C115.964 35.2933 115.547 35.6033 115.107 35.81C114.667 36.0167 114.137 36.12 113.517 36.12Z" fill="#3B1D8F"/>
</svg>
