<svg width="159" height="303" viewBox="0 0 159 303" fill="none" xmlns="http://www.w3.org/2000/svg">
<path d="M132.5 303H26.5C11.8942 303 0 291.13 0 276.554V26.4459C0 11.8699 11.8942 0 26.5 0H132.5C147.106 0 159 11.8699 159 26.4459V276.554C159 291.13 147.106 303 132.5 303ZM26.5 1.64005C12.7981 1.64005 1.64341 12.7719 1.64341 26.4459V276.554C1.64341 290.228 12.7981 301.36 26.5 301.36H132.5C146.202 301.36 157.357 290.228 157.357 276.554V26.4459C157.357 12.7719 146.202 1.64005 132.5 1.64005H26.5Z" fill="#DEE6EF"/>
<path d="M132.126 298.088H26.8731C14.8384 298.088 5.04736 288.278 5.04736 276.221V26.8981C5.04736 14.8407 14.8384 5.03125 26.8731 5.03125H132.126C144.161 5.03125 153.952 14.8407 153.952 26.8981V276.221C153.952 288.278 144.161 298.088 132.126 298.088ZM26.8731 6.25743C15.5115 6.25743 6.27124 15.5151 6.27124 26.8981V276.221C6.27124 287.604 15.5115 296.862 26.8731 296.862H132.126C143.488 296.862 152.728 287.604 152.728 276.221V26.8981C152.728 15.5151 143.488 6.25743 132.126 6.25743H26.8731Z" fill="#DEE6EF"/>
<rect x="12.6187" y="14.4048" width="135.024" height="275.095" rx="10.7937" fill="#34449C"/>
</svg>
